<svg width="2228" height="947" viewBox="0 0 2228 947" fill="none" xmlns="http://www.w3.org/2000/svg">
<path d="M470.32 6.25186C517.51 6.25186 564.7 6.25186 613.32 6.25186C614.996 10.4398 616.075 14.3042 616.949 18.6815C617.26 20.1936 617.571 21.7056 617.883 23.2177C618.045 24.0155 618.207 24.8133 618.375 25.6353C621.299 39.9734 624.42 54.2547 627.758 68.5019C630.929 82.0552 633.937 95.6344 636.82 109.252C639.686 122.785 642.672 136.282 645.82 149.752C649.175 164.105 652.33 178.492 655.384 192.913C658.209 206.239 661.201 219.518 664.306 232.782C669.311 254.199 673.805 275.727 678.32 297.252C679.64 297.582 680.96 297.912 682.32 298.252C682.448 297.262 682.576 296.272 682.707 295.252C683.288 291.198 684.176 287.231 685.133 283.252C685.309 282.51 685.486 281.768 685.668 281.003C687.257 274.393 688.997 267.827 690.777 261.267C691.788 257.516 692.771 253.759 693.758 250.002C694.184 248.382 694.609 246.762 695.035 245.142C695.248 244.334 695.46 243.525 695.679 242.691C696.725 238.711 697.773 234.732 698.82 230.752C699.237 229.169 699.654 227.585 700.07 226.002C707.57 197.502 707.57 197.502 708.195 195.128C708.613 193.541 709.03 191.955 709.448 190.368C710.476 186.459 711.505 182.551 712.535 178.642C714.809 170.015 717.07 161.385 719.32 152.752C721.77 143.352 724.235 133.956 726.711 124.562C727.749 120.626 728.784 116.689 729.82 112.752C730.237 111.169 730.654 109.585 731.07 108.002C731.38 106.826 731.38 106.826 731.695 105.627C735.654 90.5852 739.612 75.5435 743.57 60.5019C743.88 59.3265 743.88 59.3265 744.195 58.1273C744.612 56.5423 745.03 54.9574 745.448 53.3725C746.484 49.4408 747.515 45.5079 748.535 41.5722C751.617 29.7354 754.957 18.0223 758.32 6.25186C795.61 6.25186 832.9 6.25186 871.32 6.25186C875.891 23.3925 875.891 23.3925 877.758 30.5019C877.965 31.2907 878.173 32.0795 878.387 32.8922C879.453 36.9448 880.516 40.9981 881.574 45.0526C883.366 51.9036 885.167 58.7487 887.094 65.5629C889.867 75.3701 892.345 85.2426 894.8 95.1339C897.212 104.847 899.697 114.532 902.426 124.162C905.424 134.771 908.145 145.435 910.8 156.135C912.589 163.346 914.424 170.537 916.363 177.709C917.514 181.968 918.637 186.235 919.758 190.502C920.185 192.127 920.612 193.752 921.039 195.377C921.358 196.591 921.358 196.591 921.684 197.83C922.301 200.179 922.92 202.528 923.539 204.877C926.07 214.479 928.583 224.086 931.087 233.695C933.081 241.341 935.087 248.983 937.102 256.623C937.94 259.801 938.772 262.981 939.602 266.162C940.028 267.796 940.456 269.43 940.883 271.064C941.088 271.851 941.293 272.638 941.505 273.449C943.085 279.462 944.808 285.421 946.621 291.369C947.289 294.124 947.461 296.432 947.32 299.252C948.64 298.922 949.96 298.592 951.32 298.252C952.533 292.857 953.741 287.461 954.945 282.064C955.128 281.246 955.311 280.427 955.499 279.584C957.846 269.053 960.117 258.514 962.258 247.939C964.712 235.849 967.469 223.843 970.276 211.831C973.172 199.418 975.909 186.98 978.508 174.502C978.758 173.301 978.758 173.301 979.014 172.075C979.346 170.482 979.678 168.889 980.01 167.295C980.17 166.526 980.331 165.756 980.496 164.963C980.654 164.206 980.812 163.448 980.974 162.668C984.002 148.168 987.295 133.727 990.598 119.287C991.443 115.588 992.288 111.889 993.133 108.189C993.454 106.783 993.454 106.783 993.782 105.348C996.939 91.5039 999.99 77.6404 1002.95 63.7519C1005.69 50.8611 1008.45 37.9737 1011.29 25.1039C1011.64 23.5051 1011.99 21.906 1012.34 20.3065C1012.82 18.1195 1013.3 15.9336 1013.79 13.748C1014.06 12.5123 1014.33 11.2767 1014.62 10.0036C1015.32 7.25186 1015.32 7.25186 1016.32 6.25186C1018.17 6.15538 1020.02 6.12999 1021.87 6.13161C1023.07 6.13023 1024.28 6.12886 1025.52 6.12744C1026.87 6.13098 1028.21 6.13462 1029.56 6.13834C1030.97 6.13862 1032.38 6.13846 1033.79 6.13789C1037.62 6.13761 1041.46 6.1435 1045.3 6.15047C1049.3 6.1567 1053.31 6.1573 1057.31 6.15849C1064.9 6.16161 1072.49 6.16982 1080.08 6.17984C1088.72 6.191 1097.36 6.19651 1106 6.20154C1123.77 6.212 1141.55 6.2296 1159.32 6.25186C1158.49 10.5868 1157.34 14.7767 1156.07 19.0019C1155.85 19.7521 1155.63 20.5023 1155.4 21.2753C1154.71 23.6014 1154.01 25.9267 1153.32 28.2519C1152.53 30.9178 1151.73 33.5844 1150.95 36.2519C1150.75 36.9279 1150.55 37.6039 1150.34 38.3004C1149.05 42.6767 1147.81 47.0638 1146.59 51.4589C1146.14 53.0957 1146.14 53.0957 1145.67 54.7655C1145.08 56.9001 1144.49 59.0355 1143.91 61.1718C1142.5 66.2729 1140.99 71.3133 1139.29 76.3261C1137.4 81.9138 1135.82 87.5474 1134.32 93.2519C1132.54 99.9009 1130.65 106.439 1128.38 112.939C1126.87 117.667 1125.6 122.457 1124.32 127.252C1122.54 133.9 1120.65 140.439 1118.38 146.939C1116.87 151.667 1115.61 156.457 1114.32 161.252C1112.51 168.01 1110.61 174.678 1108.31 181.291C1106.35 187.153 1104.68 193.109 1102.96 199.046C1101.92 202.617 1100.87 206.184 1099.82 209.752C1099.4 211.169 1098.99 212.585 1098.57 214.002C1071.07 307.502 1071.07 307.502 1070.45 309.625C1070.03 311.048 1069.61 312.471 1069.19 313.894C1068.18 317.338 1067.16 320.781 1066.14 324.221C1064.24 330.62 1062.38 337.027 1060.59 343.459C1060.29 344.55 1059.98 345.641 1059.67 346.766C1059.08 348.9 1058.49 351.036 1057.91 353.172C1056.5 358.273 1054.99 363.313 1053.29 368.326C1051.4 373.914 1049.82 379.547 1048.32 385.252C1046.54 391.901 1044.65 398.439 1042.38 404.939C1040.87 409.667 1039.6 414.457 1038.32 419.252C1035.24 430.746 1035.24 430.746 1033.32 436.252C1031.1 442.618 1029.41 449.119 1027.69 455.635C1026.17 461.345 1024.49 466.989 1022.72 472.624C1022.49 473.36 1022.25 474.096 1022.02 474.855C1021.45 476.654 1020.89 478.453 1020.32 480.252C1004.32 480.322 988.315 480.375 972.312 480.407C964.882 480.423 957.452 480.444 950.022 480.478C943.548 480.508 937.074 480.527 930.6 480.534C927.17 480.538 923.74 480.547 920.311 480.569C916.487 480.593 912.663 480.594 908.838 480.592C907.124 480.609 907.124 480.609 905.375 480.625C904.337 480.621 903.3 480.617 902.23 480.613C900.873 480.617 900.873 480.617 899.487 480.621C898.772 480.499 898.057 480.377 897.32 480.252C895.57 477.626 894.863 476.115 894.059 473.174C893.716 471.945 893.716 471.945 893.367 470.692C893.004 469.36 893.004 469.36 892.633 468.002C890.472 460.265 888.235 452.558 885.883 444.877C885.588 443.915 885.294 442.953 884.991 441.961C884.394 440.012 883.796 438.064 883.198 436.115C881.795 431.538 880.401 426.957 879.008 422.377C878.727 421.454 878.446 420.531 878.156 419.58C875.319 410.256 872.494 400.928 869.668 391.6C865.896 379.147 862.113 366.698 858.32 354.252C854.091 340.371 849.875 326.487 845.668 312.6C842.17 301.052 838.663 289.508 835.147 277.966C833.704 273.228 832.262 268.49 830.82 263.752C830.533 262.81 830.247 261.867 829.951 260.896C828.455 255.981 826.96 251.066 825.465 246.15C822.432 236.179 819.397 226.209 816.32 216.252C815.33 216.252 814.34 216.252 813.32 216.252C810.208 225.995 807.141 235.745 804.282 245.566C801.676 254.499 798.942 263.394 796.223 272.293C795.346 275.168 794.471 278.044 793.598 280.92C790.486 291.163 787.352 301.398 784.195 311.627C781.753 319.542 779.354 327.466 777.038 335.419C775.533 340.571 773.947 345.696 772.335 350.815C770.465 356.764 768.638 362.725 766.82 368.689C766.548 369.582 766.275 370.474 765.995 371.393C764.503 376.297 763.037 381.209 761.599 386.129C758.36 397.201 754.961 408.221 751.55 419.241C748.05 430.553 744.647 441.887 741.32 453.252C738.68 462.162 736.04 471.072 733.32 480.252C692.4 480.252 651.48 480.252 609.32 480.252C605.855 468.372 605.855 468.372 602.32 456.252C599.993 448.904 599.993 448.904 597.652 441.56C596.049 436.462 594.721 431.3 593.383 426.127C592.181 421.62 590.748 417.191 589.32 412.752C587.122 405.917 585.181 399.078 583.383 392.127C582.181 387.62 580.748 383.191 579.32 378.752C577.122 371.917 575.181 365.078 573.383 358.127C572.181 353.62 570.748 349.191 569.32 344.752C567.163 338.033 565.222 331.299 563.449 324.467C560.118 311.828 556.299 299.297 552.406 286.822C550.87 281.771 549.413 276.698 547.945 271.627C545.771 264.115 543.525 256.635 541.133 249.189C539 242.549 537.13 235.881 535.383 229.127C534.181 224.62 532.748 220.191 531.32 215.752C529.122 208.917 527.181 202.078 525.383 195.127C524.181 190.62 522.748 186.191 521.32 181.752C519.159 175.021 517.218 168.275 515.438 161.432C511.665 147.128 507.282 132.99 502.737 118.916C500.73 112.659 498.983 106.387 497.348 100.021C496.13 95.5546 494.738 91.1585 493.32 86.7519C491.122 79.9174 489.181 73.0782 487.383 66.1269C486.181 61.6204 484.748 57.1908 483.32 52.7519C481.127 45.933 479.186 39.1109 477.398 32.1737C475.901 26.5537 474.067 21.0312 472.25 15.5077C471.875 14.3524 471.875 14.3524 471.492 13.1737C471.266 12.4889 471.04 11.8041 470.808 11.0985C470.32 9.25186 470.32 9.25186 470.32 6.25186Z" fill="#FDFDFD"/>
<path d="M1595.32 6.25195C1642.51 6.25195 1689.7 6.25195 1738.32 6.25195C1747.54 24.688 1747.54 24.688 1750.87 31.5371C1751.44 32.7082 1751.44 32.7082 1752.02 33.903C1753.23 36.373 1754.43 38.8437 1755.63 41.3145C1756.05 42.1691 1756.47 43.0238 1756.89 43.9044C1762.99 56.4342 1769.05 68.9836 1775.04 81.5664C1777.4 86.5074 1779.76 91.4422 1782.13 96.377C1782.63 97.4053 1783.12 98.4337 1783.63 99.4932C1787.83 108.247 1792.06 116.991 1796.28 125.735C1800.63 134.735 1804.96 143.744 1809.26 152.765C1811.67 157.796 1814.07 162.823 1816.49 167.846C1817.03 168.956 1817.56 170.066 1818.11 171.21C1819.13 173.33 1820.15 175.449 1821.17 177.567C1823.54 182.483 1825.88 187.41 1828.17 192.361C1828.59 193.253 1829 194.145 1829.42 195.063C1830.32 197.252 1830.32 197.252 1830.32 199.252C1832.24 199.182 1832.24 199.182 1834.32 198.252C1836.01 195.778 1836.01 195.778 1837.39 192.619C1837.95 191.432 1838.51 190.245 1839.09 189.022C1839.69 187.724 1840.29 186.426 1840.88 185.127C1841.51 183.797 1842.13 182.467 1842.76 181.138C1844.03 178.449 1845.29 175.757 1846.54 173.062C1848.97 167.854 1851.46 162.679 1853.95 157.502C1854.84 155.628 1855.73 153.755 1856.63 151.881C1858.45 148.073 1860.27 144.269 1862.11 140.467C1866.42 131.513 1870.72 122.554 1874.93 113.553C1875.25 112.884 1875.56 112.214 1875.88 111.525C1876.36 110.505 1876.36 110.505 1876.85 109.463C1884.89 92.286 1893.15 75.2222 1901.49 58.1858C1901.9 57.3478 1902.31 56.5098 1902.73 55.6465C1903.33 54.4131 1903.33 54.4131 1903.95 53.1548C1907.19 46.535 1910.39 39.9015 1913.57 33.252C1913.95 32.4551 1914.33 31.6582 1914.72 30.8372C1918.62 22.6564 1922.46 14.4505 1926.32 6.25195C1973.51 6.25195 2020.7 6.25195 2069.32 6.25195C2067.98 10.2704 2066.84 13.4464 2064.92 17.0957C2064.21 18.4518 2064.21 18.4518 2063.49 19.8352C2062.98 20.7977 2062.47 21.7603 2061.95 22.752C2061.41 23.7731 2060.87 24.7943 2060.32 25.8464C2056.37 33.3425 2052.32 40.7859 2048.24 48.2139C2043.56 56.765 2039 65.3803 2034.45 74.002C2028.54 85.1896 2022.59 96.354 2016.58 107.485C2011.95 116.054 2007.38 124.65 2002.82 133.252C1997.13 143.981 1991.4 154.69 1985.63 165.376C1980.58 174.751 1975.59 184.161 1970.6 193.574C1965.65 202.9 1960.65 212.188 1955.57 221.44C1951.54 228.797 1947.67 236.228 1943.81 243.673C1940.51 250.013 1937.14 256.303 1933.7 262.564C1927.73 273.426 1921.94 284.379 1916.17 295.347C1915.83 295.98 1915.5 296.613 1915.15 297.265C1914.42 298.652 1913.7 300.042 1912.99 301.438C1910.96 305.368 1908.81 309.063 1906.29 312.696C1895.57 328.822 1895.63 344.155 1895.9 362.772C1895.95 366.917 1895.93 371.062 1895.91 375.208C1895.9 383.02 1895.94 390.831 1896.01 398.644C1896.1 409.227 1896.09 419.809 1896.09 430.393C1896.09 447.013 1896.21 463.631 1896.32 480.252C1854.08 480.252 1811.84 480.252 1768.32 480.252C1768.42 469.676 1768.52 459.101 1768.63 448.205C1768.66 441.451 1768.69 434.697 1768.7 427.943C1768.71 417.254 1768.75 406.567 1768.88 395.878C1768.98 388.089 1769.02 380.301 1769 372.51C1768.99 368.398 1769.01 364.289 1769.09 360.177C1769.52 337.922 1766.31 322.898 1754.08 304.025C1751.67 300.231 1749.6 296.295 1747.56 292.291C1746.9 291.038 1746.23 289.785 1745.57 288.534C1745.25 287.937 1744.94 287.34 1744.61 286.725C1739.59 277.244 1734.55 267.781 1729.38 258.377C1723.93 248.444 1718.63 238.433 1713.34 228.415C1706.32 215.135 1699.25 201.887 1692.15 188.655C1689.03 182.856 1685.93 177.054 1682.82 171.252C1679.1 164.298 1675.37 157.344 1671.64 150.393C1666.42 140.654 1661.2 130.914 1656.02 121.15C1655.66 120.469 1655.3 119.788 1654.92 119.085C1654.19 117.706 1653.46 116.326 1652.73 114.947C1652.37 114.264 1652.01 113.581 1651.63 112.877C1651.27 112.193 1650.91 111.51 1650.53 110.806C1646.2 102.635 1641.83 94.4844 1637.38 86.377C1632.31 77.135 1627.37 67.8247 1622.45 58.502C1616.81 47.8376 1611.16 37.1839 1605.45 26.5645C1604.88 25.5148 1604.32 24.4652 1603.73 23.3838C1601.52 19.2791 1599.3 15.1911 1596.94 11.1699C1595.32 8.25195 1595.32 8.25195 1595.32 6.25195Z" fill="#FDFDFD"/>
<path d="M1347.98 564.803C1350.34 565.256 1352.71 565.66 1355.08 566.06C1379.94 570.508 1406.1 581.727 1425.32 598.252C1426.15 598.956 1426.98 599.659 1427.83 600.385C1430.38 602.62 1432.86 604.92 1435.32 607.252C1436.28 608.134 1437.24 609.015 1438.22 609.924C1460.43 630.819 1473.81 660.096 1476.32 690.252C1442.66 690.252 1409 690.252 1374.32 690.252C1372.67 686.292 1371.02 682.332 1369.32 678.252C1363.37 667.939 1355.19 660.925 1344.32 656.252C1343.72 655.976 1343.12 655.7 1342.5 655.416C1326.69 648.735 1303.18 648.684 1287.25 655.082C1279.34 658.563 1271.93 662.643 1265.32 668.252C1264.53 668.838 1263.73 669.425 1262.92 670.029C1251.28 679.983 1244.66 695.815 1240.51 710.189C1240.31 710.855 1240.12 711.522 1239.92 712.208C1236.5 724.99 1236.01 738.09 1236.11 751.235C1236.13 753.58 1236.13 755.925 1236.13 758.269C1236.2 786.712 1241.97 815.614 1262.01 836.971C1276.28 851.069 1293.94 856.565 1313.63 856.752C1334.37 856.59 1354.36 852.193 1370.07 838.064C1378.86 828.88 1381.31 816.295 1383.32 804.252C1360.88 804.252 1338.44 804.252 1315.32 804.252C1315.32 780.492 1315.32 756.732 1315.32 732.252C1369.77 732.252 1424.22 732.252 1480.32 732.252C1480.32 854.618 1480.32 854.618 1437.32 899.252C1436.68 899.957 1436.04 900.662 1435.37 901.389C1409.66 928.831 1367.01 943.436 1330.32 945.252C1281.89 946.676 1232.08 939.494 1194.32 906.252C1193.1 905.192 1193.1 905.192 1191.85 904.111C1165.08 880.476 1147.91 851.526 1138.32 817.252C1138.12 816.558 1137.93 815.864 1137.73 815.149C1136.37 810.223 1135.28 805.27 1134.32 800.252C1134.17 799.486 1134.02 798.721 1133.86 797.932C1131.06 782.93 1131 767.835 1130.95 752.627C1130.94 751.638 1130.93 750.648 1130.92 749.629C1130.6 697.034 1148.41 648.126 1185.32 610.252C1207.81 587.688 1237.7 573.707 1268.32 566.252C1269.21 566.029 1270.11 565.806 1271.03 565.576C1273.45 565.034 1275.86 564.623 1278.32 564.252C1279.46 564.067 1280.59 563.883 1281.76 563.693C1303.24 560.578 1326.68 560.705 1347.98 564.803Z" fill="#FDFDFD"/>
<path d="M224.32 566.252C225.284 566.461 226.248 566.67 227.24 566.885C267.183 575.743 302.681 596.599 325.32 631.252C339.515 653.642 349.32 680.536 349.32 707.252C315.33 707.252 281.34 707.252 246.32 707.252C245.66 702.962 245 698.672 244.32 694.252C240.632 680.388 232.496 667.988 220.32 660.252C216.754 658.22 213.174 656.658 209.32 655.252C208.245 654.859 207.17 654.465 206.063 654.06C187.701 648.269 166.848 649.86 149.328 657.685C130.09 667.704 118.104 684.019 111.379 704.428C107.852 717.17 105.574 730.016 105.32 743.252C105.295 744.301 105.269 745.35 105.242 746.431C104.915 761.354 104.994 775.668 108.32 790.252C108.602 791.612 108.883 792.973 109.164 794.334C112.179 808.202 117.459 821.076 126.32 832.252C126.755 832.86 127.189 833.469 127.637 834.096C134.757 843.447 146.392 849.614 157.32 853.252C158.267 853.57 159.213 853.889 160.188 854.217C179.667 859.706 202.03 857.196 219.648 847.482C233.736 839.212 240.864 826.629 245.32 811.252C245.669 809.254 246.005 807.255 246.32 805.252C255.8 805.221 265.279 805.201 274.758 805.189C275.459 805.188 276.16 805.188 276.883 805.187C301.041 805.161 325.174 805.454 349.32 806.252C347.07 839.453 331.58 869.904 309.32 894.252C308.621 895.019 308.621 895.019 307.907 895.802C282.061 923.768 245.064 939.742 207.649 943.986C206.182 944.153 204.718 944.335 203.256 944.537C156.856 950.638 105.974 939.801 68.5079 911.314C48.4395 895.529 33.087 876.83 21.3204 854.252C21.0047 853.648 20.6891 853.044 20.3638 852.422C11.5855 835.343 6.51179 817.114 3.32037 798.252C3.10639 797.025 2.8924 795.797 2.67193 794.533C0.6892 782.464 0.15578 770.483 0.189999 758.272C0.195329 756.019 0.190036 753.766 0.183651 751.514C0.164078 718.166 5.13397 685.27 20.3204 655.252C20.6629 654.572 21.0055 653.892 21.3585 653.192C28.9328 638.432 38.8509 625.218 50.3204 613.252C51.1363 612.373 51.9523 611.494 52.793 610.588C95.4871 565.944 165.691 553.069 224.32 566.252Z" fill="#FDFDFD"/>
<path d="M1866.32 562.252C1883.91 562.158 1901.49 562.088 1919.08 562.045C1927.25 562.024 1935.41 561.996 1943.58 561.95C1950.71 561.91 1957.83 561.884 1964.96 561.876C1968.72 561.87 1972.49 561.858 1976.26 561.829C2001 561.643 2022.95 562.872 2041.88 580.686C2048.21 587.345 2053.89 594.157 2059.07 601.752C2060.29 603.519 2061.51 605.286 2062.73 607.053C2063.34 607.928 2063.94 608.802 2064.56 609.704C2067.16 613.468 2069.8 617.205 2072.45 620.939C2073.43 622.329 2074.41 623.718 2075.39 625.107C2075.87 625.79 2076.36 626.472 2076.85 627.175C2079.34 630.7 2081.83 634.226 2084.32 637.752C2085.32 639.169 2086.32 640.585 2087.32 642.002C2201.32 803.502 2201.32 803.502 2202.82 805.629C2203.82 807.038 2204.81 808.447 2205.8 809.855C2208.39 813.521 2210.98 817.187 2213.57 820.854C2214.1 821.611 2214.64 822.368 2215.19 823.148C2216.2 824.585 2217.21 826.021 2218.22 827.457C2221.24 831.733 2224.28 835.996 2227.32 840.252C2225.51 844.289 2222.96 847.822 2220.45 851.439C2219.96 852.141 2219.47 852.843 2218.97 853.567C2213.98 860.781 2208.91 867.949 2203.84 875.111C2201.83 877.949 2199.82 880.789 2197.82 883.63C2196.82 885.042 2195.82 886.454 2194.83 887.866C2192.28 891.466 2189.75 895.069 2187.21 898.678C2171.64 920.868 2157.5 939.536 2129.32 945.252C2124.61 945.647 2119.94 945.633 2115.22 945.593C2113.84 945.592 2112.46 945.592 2111.08 945.594C2107.36 945.595 2103.65 945.577 2099.93 945.556C2096.04 945.537 2092.15 945.536 2088.25 945.532C2080.89 945.523 2073.53 945.498 2066.17 945.468C2057.79 945.434 2049.41 945.418 2041.02 945.403C2023.79 945.372 2006.55 945.319 1989.32 945.252C1993.68 937.566 1993.68 937.566 1996.06 934.334C1996.56 933.648 1997.07 932.961 1997.58 932.254C1998.11 931.531 1998.65 930.809 1999.2 930.064C2003.99 923.487 2008.72 916.868 2013.38 910.189C2013.97 909.352 2014.55 908.515 2015.15 907.652C2016.32 905.987 2017.48 904.321 2018.64 902.655C2021.23 898.95 2023.84 895.256 2026.45 891.564C2026.93 890.875 2027.42 890.185 2027.92 889.474C2028.9 888.092 2029.88 886.71 2030.85 885.329C2033.34 881.804 2035.83 878.278 2038.32 874.752C2039.31 873.348 2040.3 871.945 2041.29 870.541C2043.38 867.578 2045.48 864.614 2047.57 861.65C2048.1 860.893 2048.64 860.136 2049.19 859.355C2050.2 857.919 2051.21 856.483 2052.22 855.047C2052.69 854.39 2053.15 853.733 2053.63 853.057C2054.07 852.421 2054.51 851.785 2054.97 851.13C2055.89 849.851 2056.85 848.602 2057.85 847.382C2059.5 845.395 2059.5 845.395 2061.32 842.252C2060.65 837.54 2056.71 833.317 2053.95 829.502C2052.85 827.976 2051.76 826.45 2050.67 824.924C2050.11 824.147 2049.56 823.371 2048.98 822.57C2046.41 818.978 2043.86 815.365 2041.32 811.752C2040.32 810.335 2039.32 808.919 2038.32 807.502C1964.07 702.314 1964.07 702.314 1888.32 595.002C1887.82 594.3 1887.33 593.597 1886.82 592.874C1885.83 591.469 1884.84 590.063 1883.84 588.658C1881.22 584.933 1878.58 581.217 1875.93 577.51C1875.38 576.734 1874.83 575.959 1874.26 575.16C1873.2 573.67 1872.13 572.181 1871.06 570.695C1870.59 570.026 1870.11 569.356 1869.62 568.666C1869.2 568.078 1868.78 567.489 1868.34 566.883C1867.32 565.252 1867.32 565.252 1866.32 562.252Z" fill="#FE7C00"/>
<path fill-rule="evenodd" clip-rule="evenodd" d="M220.519 0.0276642L217.785 0.0489197C213.336 0.0719258 209.01 0.166045 204.59 0.717133C202.535 1.05327 200.476 1.36395 198.412 1.63754C142.559 8.9515 89.8378 32.0751 53.6979 76.5465L52.3204 78.252C42.1349 90.7441 32.9287 104.056 25.9923 118.639C25.1338 120.494 24.2735 122.349 23.381 124.188C14.3383 142.79 8.05449 162.964 4.77357 183.39L4.32045 186.252C1.35547 203.865 -0.00503715 221.032 1.40115e-05 238.891L0.00794858 241.877C0.0839672 271.626 2.02495 302.446 11.5162 330.862L12.3204 333.252C17.3279 348.509 23.0128 362.929 30.965 376.906L32.3204 379.252C42.0706 396.127 53.5954 412.948 68.3204 425.877C70.4147 427.635 72.4734 429.394 74.4767 431.256C102.613 457.47 138.098 473.829 175.529 481.669L178.32 482.252C194.107 485.786 209.492 486.594 225.619 486.626L228.82 486.627C241.465 486.65 253.943 486.405 266.495 484.778L270.32 484.252C291.218 481.515 311.998 475.53 331.184 466.768L334.32 465.252C373.589 446.659 405.824 418.431 427.884 380.743L429.32 378.252C443.683 353.496 452.93 324.75 456.881 296.455L457.32 293.252C459.746 277.239 460.555 261.492 460.572 245.318L460.57 242.377C460.561 227.721 460.248 213.235 458.264 198.69L457.883 196.002C454.365 169.946 447.483 143.661 435.359 120.226L434.32 118.252C423.059 96.8231 409.461 77.5238 391.929 60.7784L390.32 59.252C359.507 29.954 320.469 11.7995 278.841 3.72372L276.32 3.25204C261.658 0.404569 247.157 0.0161129 232.266 0L229.258 0.00204468C226.345 0.00380751 223.432 0.010176 220.519 0.0276642ZM261.871 116.354L258.32 115.252C244.108 110.656 227.038 110.69 212.316 112.697L209.32 113.252L206.539 113.76C183.932 118.892 166.24 132.274 153.32 151.252C130.46 188.638 126.17 241.255 134.777 283.7L135.32 286.252C140.169 309.697 147.373 332.215 164.383 349.752C181.86 366.195 202.077 374.553 226.125 374.525C228.224 374.513 230.323 374.502 232.423 374.513C242.148 374.572 251.301 374.045 260.664 371.256L263.32 370.252C275.793 365.79 287.217 359.297 296.304 349.553L298.32 347.252C312.91 330.88 321.372 309.185 324.914 287.717L325.32 285.252C327.774 271.817 328.562 258.631 328.573 244.997L328.57 242.439C328.557 226.161 326.971 210.903 323.851 194.929L323.32 192.252C321.084 180.9 317.478 170.696 312.38 160.333C301.456 138.893 284.733 123.966 261.871 116.354Z" fill="#FDFDFD"/>
<path fill-rule="evenodd" clip-rule="evenodd" d="M1835.32 610.252C1833.72 608.743 1832.12 607.243 1830.51 605.752C1788.91 569.006 1734.57 558.161 1680.29 563.269C1635.4 568.139 1594 590.527 1565.68 625.559L1564.32 627.252C1552.37 642.122 1542.74 659.891 1536.98 678.099L1536.32 680.252C1525.25 715.622 1522.19 755.9 1528.8 792.514L1529.32 795.252C1535.41 827.735 1546.19 857.203 1566.95 883.322L1569.32 886.252C1577.96 896.984 1588.63 905.839 1599.67 914.01C1639.75 942.64 1693.23 951.146 1741.25 943.251L1743.38 942.877C1784.65 935.75 1823.14 915.221 1849.19 882.057L1851.32 879.252C1867.09 859.039 1879.64 833.992 1883.64 808.496C1884 806.23 1884.37 803.974 1884.78 801.718C1887.38 787.733 1888.86 774.182 1888.82 759.951C1888.79 756.718 1888.76 753.486 1888.77 750.253C1888.78 745.978 1888.77 741.705 1888.71 737.431C1887.51 692.115 1870.89 644.482 1837.81 612.58L1835.32 610.252ZM1737.21 655.127L1734.32 654.252C1708.58 646.433 1679.95 648.515 1658.88 666.565C1640.18 684.742 1632.06 710.778 1630.32 736.252C1629.1 769.949 1630.46 809.133 1654 835.865C1667 849.22 1683.57 856.863 1702.24 857.455C1721.04 857.743 1741.19 854.683 1755.39 841.217L1757.32 839.252C1770.13 826.416 1778.61 809.772 1781.63 791.815C1781.95 789.122 1782.27 786.475 1782.82 783.818C1784.5 775.528 1784.6 767.374 1784.59 758.951C1784.58 756.165 1784.57 753.38 1784.58 750.593C1784.63 740.649 1784.5 730.958 1782.86 721.127L1782.32 718.252C1780.57 708.992 1777.91 700.223 1774.01 691.635C1766.12 675.844 1754.45 661.198 1737.21 655.127Z" fill="#FDFDFD"/>
<path fill-rule="evenodd" clip-rule="evenodd" d="M1461.32 6.25195H1285.32C1284.67 8.19538 1284.02 10.1385 1283.38 12.0814C1278.97 25.2894 1274.57 38.4904 1270.28 51.7363C1265.04 67.9225 1259.73 84.0811 1254.34 100.215C1249.04 116.061 1243.78 131.918 1238.63 147.814C1234.74 159.826 1230.81 171.821 1226.82 183.798L1226.13 185.857C1223.84 192.723 1221.55 199.587 1219.25 206.449C1214.76 219.839 1210.3 233.236 1205.99 246.682C1202.57 257.325 1199.11 267.954 1195.57 278.557L1194.88 280.627C1193.26 285.475 1191.64 290.322 1190.02 295.169C1188.16 300.713 1186.3 306.258 1184.45 311.804L1183.76 313.877C1180.25 324.37 1176.81 334.881 1173.43 345.416C1170 356.126 1166.49 366.81 1162.92 377.477L1162.11 379.9C1159.64 387.297 1157.16 394.692 1154.68 402.086C1145.96 428.064 1137.6 454.127 1129.32 480.252H1268.32C1268.77 479.362 1269.01 478.868 1269.22 478.36C1269.49 477.725 1269.7 477.067 1270.16 475.588L1271.18 472.197C1271.75 470.273 1272.33 468.349 1272.9 466.424C1273.31 465.054 1273.71 463.684 1274.12 462.314C1274.95 459.553 1275.77 456.792 1276.6 454.031C1277.98 449.407 1279.36 444.783 1280.74 440.161L1281.45 437.814C1282.68 433.685 1283.92 429.556 1285.19 425.437L1286.1 422.482C1286.72 420.489 1287.33 418.495 1287.95 416.502C1289.12 412.762 1290.23 409.017 1291.32 405.252L1295.32 389.252L1451.32 390.252L1451.79 391.904C1452.51 394.424 1453.23 396.944 1453.97 399.458L1454.54 401.354L1455.2 403.556L1455.89 405.877C1456.66 408.439 1457.43 411 1458.2 413.561L1459.01 416.252C1462.39 427.507 1465.77 438.762 1469.2 450.002C1470.24 453.417 1471.28 456.834 1472.32 460.252L1478.32 480.252H1617.32C1617.32 479.608 1617.32 479.15 1617.28 478.695C1617.18 477.578 1616.82 476.483 1615.59 472.695L1614.82 470.338C1613.97 467.714 1613.11 465.091 1612.25 462.47L1611.56 460.349C1611.17 459.151 1610.77 457.953 1610.38 456.755C1602.52 432.681 1594.49 408.662 1586.45 384.645C1585.11 380.634 1583.76 376.622 1582.42 372.609C1581.71 370.482 1581 368.354 1580.29 366.227C1577.48 357.87 1574.75 349.493 1572.05 341.101C1566.01 322.316 1559.85 303.572 1553.66 284.834C1552.09 280.057 1550.51 275.28 1548.93 270.503L1547.96 267.535L1545.99 261.574L1543.03 252.587C1538.9 240.065 1534.77 227.543 1530.65 215.018L1529.88 212.666L1526.78 203.25C1521.93 188.506 1517.08 173.763 1512.22 159.021L1510.32 153.252C1505.79 139.494 1501.26 125.736 1496.72 111.98L1495.97 109.701C1494.3 104.626 1492.62 99.5514 1490.95 94.4758C1489.14 88.9727 1487.32 83.4698 1485.51 77.9678C1484.82 75.8672 1484.12 73.7667 1483.43 71.666C1481.76 66.5851 1480.55 62.9183 1479.33 59.2553C1476.18 49.7575 1472.94 40.2852 1461.32 6.25195ZM1376.32 138.252L1371.32 137.252C1370.79 138.316 1370.54 138.814 1370.33 139.329C1370.15 139.781 1370 140.247 1369.72 141.122L1369.03 143.428L1368.25 146.054L1367.41 148.92C1366.49 152.02 1365.57 155.119 1364.65 158.22C1363.42 162.381 1362.18 166.542 1360.95 170.703L1360.03 173.795C1357.63 181.89 1355.2 189.976 1352.73 198.053C1349.82 207.616 1346.93 217.189 1344.06 226.768L1343.04 230.181C1340.45 238.86 1337.85 247.538 1335.2 256.201C1331.42 268.514 1327.86 280.864 1324.32 293.252H1422.32C1422.32 292.215 1422.32 291.715 1422.25 291.225C1422.19 290.77 1422.08 290.322 1421.85 289.459L1421.18 287.279L1420.43 284.797C1419.92 283.118 1419.4 281.438 1418.89 279.758L1418.12 277.217C1417.15 274.01 1416.19 270.8 1415.24 267.584C1411.69 255.446 1408.02 243.347 1404.32 231.252L1403.5 228.576C1400.54 218.876 1397.57 209.176 1394.73 199.439C1392.17 190.686 1389.5 181.969 1386.82 173.252C1383.56 162.632 1380.34 152.001 1377.22 141.338L1376.32 138.252Z" fill="#FDFDFD"/>
<path fill-rule="evenodd" clip-rule="evenodd" d="M1033.85 585.328C1006.63 567.252 967.404 567.252 790.32 567.252V940.252H891.32V817.252H927.32C927.32 817.918 927.32 818.385 927.389 818.842C927.55 819.917 928.092 820.935 929.909 824.351L931.07 826.502C933.718 831.458 936.395 836.396 939.098 841.322L940.534 843.94L942.008 846.627C946.568 854.94 950.977 863.323 955.32 871.752C959.578 880.016 963.9 888.233 968.383 896.377C972.802 904.396 977.064 912.487 981.258 920.627L982.869 923.78L984.41 926.775L985.75 929.398L987.32 932.252C988.29 934.463 989.318 936.469 990.614 938.51C991.593 939.51 992.204 940.133 992.938 940.527C994.157 941.179 995.715 941.198 999.86 941.247L1002.89 941.16C1006.28 941.164 1009.65 941.156 1013.04 941.098C1015.45 941.055 1017.87 941.026 1020.28 941.011C1026.61 940.99 1032.94 940.942 1039.27 940.855C1045.83 940.765 1052.38 940.708 1058.94 940.666C1073.07 940.579 1087.2 940.439 1101.32 940.252C1101.32 939.728 1101.32 939.292 1101.28 938.86C1101.08 936.726 1099.91 934.682 1092.96 922.541C1088.42 914.633 1083.97 906.692 1079.78 898.594C1075.3 889.876 1070.69 881.263 1065.82 872.752C1061.48 865.167 1057.32 857.52 1053.32 849.752C1049.22 841.792 1044.95 833.962 1040.51 826.189C1035.83 818.001 1031.38 809.768 1027.32 801.252C1037.68 796.326 1047.6 789.595 1055.93 781.709C1078.92 758.113 1089.51 729.735 1089.71 696.759C1089.69 662.7 1081.78 630.53 1057.07 605.564C1048.37 597.078 1041.6 590.471 1033.85 585.328ZM914.508 648.127L892.32 648.252V738.252L915.57 738.377L916.621 738.385C919.689 738.409 922.757 738.432 925.826 738.441L928.648 738.447C936.729 738.532 944.405 737.971 952.32 736.252C964.983 732.584 973.688 726.886 980.32 715.252C985.689 703.622 986.391 689.04 982.426 676.811C977.889 666.311 972.043 659.333 961.756 654.448L959.695 653.502C955.697 651.624 953.05 650.381 950.277 649.562C944.845 647.959 938.93 647.987 921.427 648.072L914.508 648.127Z" fill="#FDFDFD"/>
<path fill-rule="evenodd" clip-rule="evenodd" d="M632.32 567.252H493.32C492.137 570.893 490.955 574.535 489.774 578.176C484.75 593.662 479.729 609.141 474.557 624.579C469.377 640.001 464.26 655.442 459.241 670.917C454.34 686.035 449.379 701.132 444.34 716.205C438.913 732.429 433.534 748.666 428.258 764.939C423.823 778.618 419.331 792.276 414.77 805.913C409.638 821.255 404.556 836.611 399.57 852.002C395.751 863.802 391.888 875.585 387.947 887.345C387.509 888.65 387.072 889.956 386.634 891.262L385.962 893.271C384.453 897.777 382.945 902.282 381.427 906.784C380.394 909.847 379.362 912.911 378.334 915.975L377.18 919.416L376.086 922.64L375.069 925.68C374.602 927.068 374.28 928.023 373.99 928.987C373.351 931.114 372.868 933.287 371.32 940.252H480.32L480.459 939.835C481.388 937.051 482.316 934.266 483.193 931.465L484.076 928.573L485.088 925.265L486.164 921.732C487.12 918.595 488.076 915.458 489.031 912.321C490.024 909.056 491.018 905.791 492.016 902.527C492.798 899.97 493.578 897.413 494.356 894.855L495.477 891.17L496.553 887.656L497.564 884.319C498.178 882.305 498.761 880.282 499.32 878.252L501.32 869.252H625.32C625.32 871.89 625.32 872.788 625.455 873.666C625.524 874.119 625.629 874.567 625.788 875.246L626.465 877.408L627.251 879.955C627.855 881.871 628.454 883.788 629.05 885.707L630.043 888.912C631.513 893.633 632.965 898.358 634.399 903.09C635.132 905.509 635.866 907.927 636.6 910.346C637.091 911.96 637.581 913.575 638.07 915.189C638.519 916.672 638.967 918.155 639.417 919.638C639.677 920.493 639.936 921.348 640.197 922.203L640.867 924.404C642.489 929.783 644.342 934.976 646.32 940.252H754.32C753.637 934.786 753.421 933.055 753.034 931.362C752.855 930.577 752.639 929.801 752.323 928.664L751.083 924.988C750.367 922.844 749.65 920.701 748.923 918.561C748.402 917.028 747.883 915.494 747.368 913.959C746.006 909.893 744.64 905.828 743.266 901.766C741.31 895.985 739.365 890.202 737.421 884.418C736.37 881.289 735.32 878.16 734.263 875.033C731.657 867.328 729.094 859.615 726.682 851.847C725.063 846.62 723.408 841.408 721.672 836.218C721.075 834.446 720.48 832.674 719.887 830.901L718.906 827.973C713.407 811.579 707.944 795.176 702.62 778.725C698.172 764.975 693.664 751.246 689.093 737.537L688.285 735.115C685.578 726.999 682.869 718.884 680.154 710.771C679.117 707.672 678.08 704.573 677.044 701.474C676.765 700.639 676.486 699.804 676.207 698.969C675.761 697.636 675.315 696.302 674.868 694.969C672.684 688.457 670.521 681.942 668.484 675.383C666.047 667.516 663.504 659.691 660.892 651.88C660.076 649.444 659.259 647.007 658.445 644.57C656.684 639.297 654.921 634.025 653.158 628.753L653.122 628.648C651.053 622.465 648.984 616.281 646.918 610.097C646.082 607.592 645.245 605.087 644.406 602.583C641.9 595.105 639.413 587.632 637.139 580.079C635.81 575.55 634.215 571.673 632.32 567.252ZM565.32 670.252H561.32C557.554 681.722 553.834 693.195 550.611 704.831C548.5 712.523 546.391 720.2 543.95 727.795C540.455 738.568 537.136 749.387 533.881 760.235L533.07 762.939C532.289 765.539 531.508 768.138 530.729 770.738L529.992 773.201C527.992 779.859 526.15 786.542 524.32 793.252H601.32C601.32 791.732 601.32 790.983 601.223 790.245C601.129 789.527 600.942 788.821 600.573 787.427L599.527 783.994C598.937 782.043 598.346 780.092 597.75 778.142C597.15 776.183 596.554 774.224 595.959 772.264L594.777 768.369C593.374 763.756 591.988 759.139 590.635 754.511C589.717 751.368 589.059 749.114 588.393 746.861C586.703 741.143 584.966 735.438 578.82 715.252L577.919 712.293C573.934 699.206 569.949 686.119 566.115 672.986L565.32 670.252Z" fill="#FDFDFD"/>
</svg>
