<?xml version="1.0" encoding="UTF-8"?>
<svg version="1.1" xmlns="http://www.w3.org/2000/svg" width="3867" height="3867">
<path d="M0 0 C1276.11 0 2552.22 0 3867 0 C3867 1276.11 3867 2552.22 3867 3867 C2590.89 3867 1314.78 3867 0 3867 C0 2590.89 0 1314.78 0 0 Z " fill="#027DDA" transform="translate(0,0)"/>
<path d="M0 0 C47.19 0 94.38 0 143 0 C144.6751907 4.18797674 145.75489281 8.05237511 146.62890625 12.4296875 C146.93996691 13.94174327 147.2510862 15.45378697 147.56225586 16.96582031 C147.72466766 17.76362915 147.88707947 18.56143799 148.05441284 19.38342285 C150.97826687 33.72152955 154.10009113 48.00280312 157.4375 62.25 C160.60858815 75.80334533 163.61657159 89.38258266 166.5 103 C169.3661587 116.53316035 172.35172748 130.0296569 175.5 143.5 C178.85468749 157.85351965 182.00954752 172.24045158 185.06350708 186.66079712 C187.88893116 199.98760249 190.88066655 213.26644289 193.98605347 226.5305481 C198.99111018 247.94751554 203.48518722 269.47536346 208 291 C209.32 291.33 210.64 291.66 212 292 C212.12761719 291.01 212.25523437 290.02 212.38671875 289 C212.96768545 284.94645999 213.85532124 280.97924096 214.8125 277 C214.98918213 276.2579834 215.16586426 275.5159668 215.34790039 274.75146484 C216.93663634 268.14147787 218.67711266 261.57558895 220.45703125 255.01464844 C221.46778071 251.26433163 222.4511419 247.50679095 223.4375 243.75 C223.86327167 242.13020582 224.28905299 240.51041417 224.71484375 238.890625 C224.92737793 238.08173828 225.13991211 237.27285156 225.35888672 236.43945312 C226.40489481 232.45936444 227.45251591 228.47970044 228.5 224.5 C228.91667468 222.91666878 229.33334134 221.33333544 229.75 219.75 C237.25 191.25 237.25 191.25 237.87475586 188.87597656 C238.29226836 187.28939645 238.70974873 185.70280788 239.12719727 184.11621094 C240.155662 180.20748405 241.18464745 176.2988959 242.21484375 172.390625 C244.48822448 163.76343659 246.750009 155.13332003 249 146.5 C251.44984295 137.09983876 253.91509748 127.70384452 256.39111328 118.31054688 C257.42849577 114.37398397 258.46414739 110.43696569 259.5 106.5 C259.91665866 104.91666456 260.33332532 103.33333122 260.75 101.75 C261.059375 100.574375 261.059375 100.574375 261.375 99.375 C265.33333333 84.33333333 269.29166667 69.29166667 273.25 54.25 C273.55925415 53.0746167 273.55925415 53.0746167 273.87475586 51.87548828 C274.29194799 50.29045142 274.70942897 48.70549056 275.12719727 47.12060547 C276.16319354 43.18890476 277.19431301 39.25605796 278.21484375 35.3203125 C281.29712415 23.48356797 284.63702739 11.77040414 288 0 C325.29 0 362.58 0 401 0 C405.57083333 17.140625 405.57083333 17.140625 407.4375 24.25 C407.64503906 25.03882568 407.85257813 25.82765137 408.06640625 26.64038086 C409.13242419 30.69293474 410.19537858 34.74626438 411.25390625 38.80078125 C413.04549175 45.65178734 414.84633361 52.49679439 416.77368164 59.31103516 C419.5469602 69.11828496 422.0244732 78.99075892 424.47949219 88.88208008 C426.8915073 98.59552647 429.37642867 108.28004142 432.10546875 117.91015625 C435.10392317 128.51883847 437.82508702 139.1832503 440.47924805 149.88330078 C442.26891164 157.09388625 444.10352505 164.28521605 446.04296875 171.45703125 C447.19352152 175.71642457 448.31669519 179.98269988 449.4375 184.25 C449.86458236 185.87500026 450.29166569 187.50000026 450.71875 189.125 C451.03779297 190.33929687 451.03779297 190.33929687 451.36328125 191.578125 C451.98089116 193.92731606 452.59959751 196.27621508 453.21875 198.625 C455.74947948 208.22733394 458.26275456 217.83410852 460.76708984 227.44335938 C462.76042384 235.08895387 464.76623191 242.73118788 466.78125 250.37109375 C467.61929088 253.54956655 468.45197534 256.72938534 469.28125 259.91015625 C469.70817146 261.54431313 470.13525319 263.17842815 470.5625 264.8125 C470.7677832 265.59931152 470.97306641 266.38612305 471.18457031 267.19677734 C472.76444742 273.21013735 474.487806 279.16948212 476.30078125 285.1171875 C476.96903149 287.87231978 477.14048474 290.179899 477 293 C478.32 292.67 479.64 292.34 481 292 C482.21225666 286.60504114 483.42031498 281.20915471 484.625 275.8125 C484.80773468 274.9939151 484.99046936 274.1753302 485.17874146 273.3319397 C487.52601456 262.80137835 489.79698119 252.26221098 491.9375 241.6875 C494.39213983 229.59763492 497.1485894 217.59126101 499.9552002 205.57931519 C502.85156192 193.16631464 505.58853256 180.7285975 508.1875 168.25 C508.43790039 167.04867935 508.43790039 167.04867935 508.69335938 165.8230896 C509.02542796 164.22987508 509.35748983 162.63665916 509.68954468 161.04344177 C509.85000275 160.27371536 510.01046082 159.50398895 510.17578125 158.7109375 C510.33358063 157.95373917 510.49138 157.19654083 510.65396118 156.41639709 C513.68204182 141.91627845 516.97463161 127.47468888 520.27734375 113.03515625 C521.12292926 109.33605919 521.9679526 105.63683421 522.8125 101.9375 C523.13365784 100.53102203 523.13365784 100.53102203 523.46130371 99.09613037 C526.6186755 85.25206453 529.66951862 71.38851479 532.625 57.5 C535.36937373 44.60924126 538.12583572 31.72179341 540.96746826 18.85205078 C541.32009083 17.25322571 541.67138717 15.65410752 542.02130127 14.0546875 C542.5001188 11.86766075 542.98368812 9.68174276 543.46875 7.49609375 C543.74138672 6.26044678 544.01402344 5.0247998 544.29492188 3.75170898 C545 1 545 1 546 0 C547.84761268 -0.09648248 549.6989581 -0.12187318 551.54908752 -0.12025452 C552.75368622 -0.12162918 553.95828491 -0.12300385 555.1993866 -0.12442017 C556.54641748 -0.12088056 557.89344812 -0.11724575 559.24047852 -0.11352539 C560.64947508 -0.11324352 562.05847179 -0.11340125 563.46746826 -0.1139679 C567.3040763 -0.11425589 571.14065334 -0.10835894 574.97725415 -0.10139394 C578.98246941 -0.09516063 582.9876853 -0.09455662 586.99290466 -0.09336853 C594.58252004 -0.09025515 602.17212108 -0.08204167 609.76173013 -0.07201904 C618.40003924 -0.06085812 627.03834901 -0.05534751 635.67666352 -0.05032361 C653.45111715 -0.03985906 671.22555742 -0.02225948 689 0 C688.16800464 4.33493779 687.01620668 8.52479698 685.75 12.75 C685.52747559 13.50023437 685.30495117 14.25046875 685.07568359 15.0234375 C684.38572962 17.34954027 683.69316821 19.67485326 683 22 C682.20581332 24.66592586 681.41384496 27.33248844 680.625 30 C680.42495361 30.67603271 680.22490723 31.35206543 680.01879883 32.04858398 C678.73258607 36.42488687 677.48991804 40.81190397 676.26953125 45.20703125 C675.81489502 46.84381836 675.81489502 46.84381836 675.35107422 48.51367188 C674.75991885 50.64827673 674.17151799 52.78364716 673.58642578 54.91992188 C672.17500171 60.02105943 670.67320787 65.06142883 668.97265625 70.07421875 C667.07819237 75.66195341 665.49946403 81.29551727 664 87 C662.22217224 93.64907581 660.33008798 100.18708111 658.0625 106.6875 C656.54613931 111.41497746 655.28456671 116.2051322 654 121 C652.21889362 127.64828816 650.33017287 134.18683777 648.0625 140.6875 C646.54613681 145.41498524 645.28469421 150.20516016 644 155 C642.18779859 161.75794252 640.28506838 168.42571185 637.9921875 175.0390625 C636.02783564 180.90118341 634.36328762 186.85756725 632.64111328 192.79443359 C631.60304878 196.36559684 630.5509745 199.93261929 629.5 203.5 C629.0832628 204.91664592 628.66659621 206.33331261 628.25 207.75 C600.75 301.25 600.75 301.25 600.12548828 303.37304688 C599.70698271 304.79616184 599.28868995 306.2193394 598.87060547 307.64257812 C597.85877029 311.08611976 596.84382455 314.5286596 595.8203125 317.96875 C593.92080772 324.36835572 592.0555989 330.77464875 590.26953125 337.20703125 C589.96644043 338.29822266 589.66334961 339.38941406 589.35107422 340.51367188 C588.75991885 342.64827673 588.17151799 344.78364716 587.58642578 346.91992188 C586.17500171 352.02105943 584.67320787 357.06142883 582.97265625 362.07421875 C581.07819237 367.66195341 579.49946403 373.29551727 578 379 C576.22217224 385.64907581 574.33008798 392.18708111 572.0625 398.6875 C570.54613931 403.41497746 569.28456671 408.2051322 568 413 C564.92073171 424.49390244 564.92073171 424.49390244 563 430 C560.78275963 436.36651592 559.08511565 442.86694112 557.36914062 449.3828125 C555.84951971 455.0929032 554.17044227 460.737032 552.39624023 466.37207031 C552.16525383 467.10833649 551.93426743 467.84460266 551.69628143 468.60317993 C551.13169224 470.40238312 550.56596325 472.20122857 550 474 C533.99735507 474.07001391 517.99475965 474.12295068 501.99199867 474.15543652 C494.56199658 474.17091972 487.13208953 474.19203682 479.70214844 474.22631836 C473.22784182 474.25617644 466.75360402 474.27556442 460.27923048 474.28226548 C456.84958657 474.28618389 453.42013956 474.2954224 449.99055862 474.31719017 C446.1663564 474.34126679 442.34234857 474.34197231 438.51806641 474.34057617 C436.80364098 474.35675491 436.80364098 474.35675491 435.05458069 474.3732605 C434.01689041 474.36913651 432.97920013 474.36501251 431.9100647 474.36076355 C430.55226363 474.36491162 430.55226363 474.36491162 429.16703224 474.36914349 C428.4519116 474.24732614 427.73679096 474.12550879 427 474 C425.24919715 471.37379572 424.54290382 469.86302309 423.73828125 466.921875 C423.39615601 465.69331787 423.39615601 465.69331787 423.04711914 464.43994141 C422.68348267 463.10842041 422.68348267 463.10842041 422.3125 461.75 C420.15139452 454.01290731 417.91489799 446.30616525 415.5625 438.625 C415.26811035 437.66287598 414.9737207 436.70075195 414.67041016 435.70947266 C414.07342743 433.76058566 413.47593561 431.81185453 412.87792969 429.86328125 C411.47442566 425.28589102 410.08096831 420.70545341 408.6875 416.125 C408.40656494 415.20219238 408.12562988 414.27938477 407.83618164 413.32861328 C404.9985464 404.00417357 402.17360661 394.67589328 399.3480835 385.34777832 C395.57602581 372.89527243 391.79218869 360.44639122 388 348 C383.77086365 334.11949728 379.55462148 320.23514304 375.3480835 306.34777832 C371.85017924 294.8003215 368.34296268 283.25573661 364.82666016 271.71386719 C363.3835345 266.9761871 361.94187913 262.23805958 360.5 257.5 C360.21318359 256.55769531 359.92636719 255.61539062 359.63085938 254.64453125 C358.13479057 249.72935687 356.63925112 244.81402227 355.14453125 239.8984375 C352.11209922 229.92740339 349.07704076 219.95738034 346 210 C345.01 210 344.02 210 343 210 C339.88773256 219.74321526 336.82086002 229.49302426 333.96166992 239.3137207 C331.35559873 248.24721407 328.62143272 257.14175554 325.90283203 266.04150391 C325.02552833 268.91634605 324.15086731 271.79197598 323.27734375 274.66796875 C320.16584585 284.91072182 317.03191564 295.14614869 313.875 305.375 C311.43284948 313.28995651 309.03397353 321.21432488 306.71777344 329.16699219 C305.21287519 334.31905561 303.6264114 339.44364542 302.01489258 344.56323242 C300.14517914 350.51179541 298.31733409 356.47273932 296.5 362.4375 C296.22752441 363.32969238 295.95504883 364.22188477 295.67431641 365.14111328 C294.18219353 370.04555715 292.71680863 374.95690558 291.27819824 379.87733459 C288.04004757 390.94925179 284.64106016 401.96927525 281.22949219 412.98876953 C277.7291918 424.30136679 274.32643872 435.63466771 271 447 C268.36 455.91 265.72 464.82 263 474 C222.08 474 181.16 474 139 474 C135.535 462.12 135.535 462.12 132 450 C129.67282015 442.65213099 129.67282015 442.65213099 127.33203125 435.30859375 C125.72900338 430.21030992 124.40040401 425.04822884 123.0625 419.875 C121.86077194 415.36851976 120.42782645 410.93898519 119 406.5 C116.80163904 399.66549166 114.86024845 392.826294 113.0625 385.875 C111.86077194 381.36851976 110.42782645 376.93898519 109 372.5 C106.80163904 365.66549166 104.86024845 358.826294 103.0625 351.875 C101.86076791 347.36850467 100.42758632 342.93907371 99 338.5 C96.84243121 331.78098062 94.90193229 325.04729976 93.12890625 318.21484375 C89.79775888 305.57653956 85.9782193 293.04557469 82.0859375 280.5703125 C80.54968039 275.51945281 79.092644 270.44615325 77.625 265.375 C75.45031075 257.86291379 73.20441397 250.38327198 70.8125 242.9375 C68.68010944 236.29710037 66.8092068 229.62893297 65.0625 222.875 C63.86077194 218.36851976 62.42782645 213.93898519 61 209.5 C58.80163904 202.66549166 56.86024845 195.826294 55.0625 188.875 C53.86076791 184.36850467 52.42758632 179.93907371 51 175.5 C48.83866509 168.76925231 46.89786319 162.02278003 45.1171875 155.1796875 C41.34482519 140.87585216 36.96207351 126.73844219 32.41699219 112.66455078 C30.40966107 106.40727004 28.66250452 100.1347279 27.02734375 93.76953125 C25.80995657 89.30269235 24.41754453 84.90659091 23 80.5 C20.80161807 73.66550054 18.86024782 66.82629158 17.0625 59.875 C15.86077194 55.36851976 14.42782645 50.93898519 13 46.5 C10.80666523 39.68111763 8.86543044 32.85904357 7.078125 25.921875 C5.58062912 20.30186107 3.74634677 14.77936862 1.9296875 9.25585938 C1.55457031 8.10053711 1.55457031 8.10053711 1.171875 6.921875 C0.9459668 6.23706055 0.72005859 5.55224609 0.48730469 4.84667969 C0 3 0 3 0 0 Z " fill="#FDFDFD" transform="translate(1290,1467)"/>
<path d="M0 0 C1.3532135 -0.01052147 1.3532135 -0.01052147 2.73376465 -0.02125549 C5.64677933 -0.03874371 8.55959093 -0.04511217 11.47265625 -0.046875 C12.46524445 -0.04754974 13.45783264 -0.04822449 14.48049927 -0.04891968 C29.37165791 -0.0328068 43.87265244 0.35564907 58.53515625 3.203125 C59.36708496 3.3587793 60.19901367 3.51443359 61.05615234 3.67480469 C102.68410806 11.7505475 141.72170522 29.90508959 172.53515625 59.203125 C173.33155518 59.95867676 173.33155518 59.95867676 174.14404297 60.72949219 C191.67571313 77.47483356 205.27384461 96.77413346 216.53515625 118.203125 C216.87788574 118.85442383 217.22061523 119.50572266 217.57373047 120.17675781 C229.69749988 143.61178934 236.58009086 169.8970851 240.09765625 195.953125 C240.22333984 196.84 240.34902344 197.726875 240.47851562 198.640625 C242.46289931 213.1858457 242.77594562 227.67244555 242.78515625 242.328125 C242.78583099 243.29877899 242.78650574 244.26943298 242.78720093 245.26950073 C242.76942184 261.44298901 241.96029878 277.18976042 239.53515625 293.203125 C239.31762695 294.78843018 239.31762695 294.78843018 239.09570312 296.40576172 C235.14453123 324.70111283 225.89775124 353.44747123 211.53515625 378.203125 C211.06110352 379.02506348 210.58705078 379.84700195 210.09863281 380.69384766 C188.03851116 418.38173084 155.80398189 446.61020312 116.53515625 465.203125 C115.50003906 465.70328125 114.46492188 466.2034375 113.3984375 466.71875 C94.21241007 475.48125186 73.43281142 481.46612304 52.53515625 484.203125 C50.64168457 484.46367676 50.64168457 484.46367676 48.70996094 484.72949219 C36.15811965 486.35635539 23.68000059 486.60155952 11.03515625 486.578125 C9.97855804 486.57791351 8.92195984 486.57770203 7.83334351 486.57748413 C-8.29288303 486.54530701 -23.67810689 485.73704199 -39.46484375 482.203125 C-40.38604004 482.01057129 -41.30723633 481.81801758 -42.25634766 481.61962891 C-79.68708548 473.77980508 -115.17229665 457.42068138 -143.30859375 431.20703125 C-145.31186299 429.34529733 -147.37057672 427.5858134 -149.46484375 425.828125 C-164.18988301 412.89954053 -175.71471293 396.07835142 -185.46484375 379.203125 C-185.91214844 378.42904297 -186.35945312 377.65496094 -186.8203125 376.85742188 C-194.77249377 362.87984836 -200.45744007 348.46051226 -205.46484375 333.203125 C-205.73022949 332.41454102 -205.99561523 331.62595703 -206.26904297 330.81347656 C-215.76034377 302.39725256 -217.70132511 271.5772724 -217.77734375 241.828125 C-217.78127136 240.34978683 -217.78127136 240.34978683 -217.78527832 238.84158325 C-217.79032948 220.98338319 -216.4298187 203.81560567 -213.46484375 186.203125 C-213.3153125 185.25872559 -213.16578125 184.31432617 -213.01171875 183.34130859 C-209.73080729 162.91535633 -203.44695886 142.74133609 -194.40429688 124.13916016 C-193.51181357 122.29992091 -192.65144665 120.44519902 -191.79296875 118.58984375 C-184.85661083 104.00697698 -175.65040404 90.69513619 -165.46484375 78.203125 C-165.01028809 77.64028809 -164.55573242 77.07745117 -164.08740234 76.49755859 C-127.94747216 32.0262277 -75.22678255 8.90257671 -19.37304688 1.58862305 C-17.30904623 1.3150286 -15.24980964 1.00435402 -13.19506836 0.66821289 C-8.77508271 0.11712495 -4.44943231 0.02300613 0 0 Z " fill="#FDFDFD" transform="translate(1037.46484375,1460.796875)"/>
<path d="M0 0 C58.08 0 116.16 0 176 0 C192.10298083 47.15872957 192.10298083 47.15872957 198.109375 65.4140625 C198.80236125 67.51470777 199.49553392 69.61529156 200.18887329 71.71582031 C202.00439868 77.21787047 203.81732826 82.72077224 205.62963104 88.22388458 C207.55182601 94.05911137 209.47654356 99.89350614 211.40087891 105.72802734 C215.93731059 119.48423493 220.46921807 133.24193074 225 147 C225.63333665 148.92301591 226.26667791 150.8460303 226.90002441 152.76904297 C231.75530081 167.5113465 236.60895388 182.25418364 241.45800781 196.99853516 C242.49021236 200.13705151 243.52243534 203.2755618 244.5546875 206.4140625 C244.80991684 207.19007435 245.06514618 207.9660862 245.32810974 208.76561356 C249.44789323 221.29069012 253.57511168 233.81330607 257.70543289 246.33491135 C258.69356279 249.3306329 259.68156473 252.32639662 260.66952515 255.32217407 C261.32476656 257.30902149 261.98000948 259.29586842 262.63525391 261.28271484 C262.9583296 262.26235765 263.2814053 263.24200047 263.61427116 264.25132942 C265.18977384 269.02835499 266.76566608 273.80525135 268.34246826 278.58184814 C274.52788662 297.31967055 280.68833107 316.06413326 286.72872925 334.84925842 C289.42790752 343.24066247 292.16272456 351.61843797 294.96673584 359.97537231 C295.68021196 362.10207362 296.39130548 364.22956228 297.10205078 366.35717773 C298.44273455 370.3696629 299.78501714 374.38161118 301.12768555 378.39343262 C309.16517829 402.41030674 317.19700878 426.42896234 325.06158447 450.50314331 C325.68413161 452.40834 326.30761686 454.31323043 326.93206787 456.21780396 C327.79110805 458.83952773 328.64620543 461.4625015 329.5 464.0859375 C329.75540558 464.86371048 330.01081116 465.64148346 330.2739563 466.44282532 C332 471.77049835 332 471.77049835 332 474 C286.13 474 240.26 474 193 474 C191.02 467.4 189.04 460.8 187 454 C185.96130483 450.58235784 184.92064044 447.16549787 183.875 443.75 C180.44482853 432.51032597 177.06526133 421.25550655 173.6875 410 C173.42088562 409.11211792 173.15427124 408.22423584 172.87957764 407.30944824 C172.11058848 404.748126 171.34228438 402.18659932 170.57421875 399.625 C170.22929131 398.47623383 170.22929131 398.47623383 169.87739563 397.30426025 C169.65963974 396.57737 169.44188385 395.85047974 169.2175293 395.1015625 C169.02990524 394.47588379 168.84228119 393.85020508 168.64897156 393.20556641 C167.74765115 390.14237822 166.87719537 387.07018381 166 384 C114.52 383.67 63.04 383.34 10 383 C8.02 390.92 8.02 390.92 6 399 C4.90629429 402.76554386 3.79550582 406.50961838 2.625 410.25 C2.01006124 412.24337997 1.39548389 414.23687147 0.78125 416.23046875 C0.47960938 417.2054834 0.17796875 418.18049805 -0.1328125 419.18505859 C-1.40185263 423.30443717 -2.64035897 427.43270524 -3.875 431.5625 C-4.10711182 432.33674316 -4.33922363 433.11098633 -4.57836914 433.90869141 C-5.96378035 438.53100615 -7.344528 443.1546981 -8.72296143 447.77909851 C-9.54644966 450.54045655 -10.37142833 453.30136823 -11.19659424 456.06222534 C-11.60560611 457.43207665 -12.01393677 458.80213155 -12.42156982 460.1723938 C-12.99421897 462.09719806 -13.5693242 464.02127109 -14.14453125 465.9453125 C-14.64496948 467.62391357 -14.64496948 467.62391357 -15.15551758 469.33642578 C-16 472 -16 472 -17 474 C-62.87 474 -108.74 474 -156 474 C-147.71643594 447.87491335 -139.35664408 421.81168524 -130.63763428 395.8338623 C-128.15648601 388.44015426 -125.68067545 381.04465906 -123.20703125 373.6484375 C-122.93949162 372.84883354 -122.67195198 372.04922958 -122.39630508 371.2253952 C-118.82911933 360.5584291 -115.3218021 349.87427674 -111.88671875 339.1640625 C-108.50788193 328.62941386 -105.06804756 318.11804567 -101.5625 307.625 C-101.3340206 306.94100758 -101.10554119 306.25701515 -100.87013817 305.55229568 C-99.01684295 300.00620551 -97.15956384 294.46145119 -95.30212402 288.91674805 C-93.67872227 284.07011975 -92.05689536 279.22296851 -90.4375 274.375 C-90.20935356 273.69208138 -89.98120712 273.00916275 -89.74614716 272.30554962 C-86.20655489 261.70196773 -82.75021501 251.07337955 -79.33368683 240.42958832 C-75.01609881 226.98408529 -70.55743093 213.58754498 -66.0718689 200.19729614 C-63.77329229 193.33505404 -61.48147122 186.47055544 -59.19140625 179.60546875 C-58.96468042 178.92584013 -58.7379546 178.24621151 -58.50435829 177.54598808 C-54.51035934 165.5692766 -50.57699627 153.57355416 -46.6875 141.5625 C-41.53984733 125.66643298 -36.28397911 109.80869472 -30.98416138 93.96273804 C-25.58979924 77.8291397 -20.27754094 61.67052549 -15.04296875 45.484375 C-10.12135289 30.28995994 -5.05151673 15.15455018 0 0 Z " fill="#FDFDFD" transform="translate(2105,1467)"/>
<path d="M0 0 C1.61298528 1.49051306 3.21719634 2.99057729 4.8125 4.5 C5.63363281 5.26828125 6.45476563 6.0365625 7.30078125 6.828125 C40.38629353 38.73017417 57.00547623 86.36253063 58.19923401 131.67878723 C58.26283337 135.95315721 58.27558232 140.2257099 58.25854492 144.50048828 C58.25004194 147.7340494 58.27893348 150.96583044 58.31054688 154.19921875 C58.35667148 168.43010763 56.87087559 181.98058949 54.27558899 195.96578979 C53.86339256 198.22149535 53.48755078 200.47777126 53.13647461 202.74365234 C49.13170821 228.24034646 36.57992161 253.28668246 20.8125 273.5 C20.10867188 274.42554687 19.40484375 275.35109375 18.6796875 276.3046875 C-7.37096278 309.46879948 -45.85401174 329.99763749 -87.125 337.125 C-87.82786133 337.2482666 -88.53072266 337.3715332 -89.25488281 337.49853516 C-137.28141967 345.39375711 -190.75999385 336.88835278 -230.8359375 308.2578125 C-241.8741832 300.08659669 -252.54946933 291.23209872 -261.1875 280.5 C-262.35925781 279.04980469 -262.35925781 279.04980469 -263.5546875 277.5703125 C-284.32044715 251.45066243 -295.09609338 221.9824131 -301.1875 189.5 C-301.35846191 188.59652832 -301.52942383 187.69305664 -301.70556641 186.76220703 C-308.32204472 150.14827877 -305.25978278 109.86979221 -294.1875 74.5 C-293.96900391 73.78956543 -293.75050781 73.07913086 -293.52539062 72.34716797 C-287.76764803 54.13941428 -278.13866581 36.37000823 -266.1875 21.5 C-265.74019531 20.94135254 -265.29289062 20.38270508 -264.83203125 19.80712891 C-236.51231266 -15.22563222 -195.10756829 -37.61303967 -150.21557617 -42.48266602 C-95.93266993 -47.59137099 -41.59785265 -36.74584806 0 0 Z " fill="#FDFDFD" transform="translate(2650.1875,2066.5)"/>
<path d="M0 0 C47.19 0 94.38 0 143 0 C152.21800831 18.43601661 152.21800831 18.43601661 155.55078125 25.28515625 C156.12175034 26.45628716 156.12175034 26.45628716 156.70425415 27.65107727 C157.90798891 30.12107267 159.11036952 32.59172346 160.3125 35.0625 C160.72863556 35.91716858 161.14477112 36.77183716 161.57351685 37.65240479 C167.67364336 50.18221278 173.72950255 62.73168878 179.71972656 75.31445312 C182.07525223 80.25548713 184.44384967 85.19024753 186.8125 90.125 C187.3060498 91.15334961 187.79959961 92.18169922 188.30810547 93.24121094 C192.51204766 101.9948098 196.7353493 110.73901642 200.96005249 119.48260498 C205.30835782 128.48314141 209.63777647 137.49247715 213.9440918 146.51318359 C216.34577349 151.5437151 218.75403631 156.57096057 221.171875 161.59375 C221.70603027 162.70395508 222.24018555 163.81416016 222.79052734 164.95800781 C223.81071788 167.07761477 224.83180588 169.19679013 225.85400391 171.31542969 C228.21929899 176.2315332 230.55974913 181.15854275 232.8515625 186.109375 C233.26486816 187.00108398 233.67817383 187.89279297 234.10400391 188.81152344 C235 191 235 191 235 193 C236.9171049 192.92966822 236.9171049 192.92966822 239 192 C240.68493465 189.52653191 240.68493465 189.52653191 242.06640625 186.3671875 C242.62859863 185.1802832 243.19079102 183.99337891 243.77001953 182.77050781 C244.36771625 181.47209874 244.96520472 180.17359379 245.5625 178.875 C246.18722876 177.54458412 246.81338237 176.21483643 247.44091797 174.88574219 C248.70832921 172.19689404 249.96840167 169.50480721 251.22216797 166.80957031 C253.64696188 161.60251104 256.13738677 156.42725914 258.625 151.25 C259.51996258 149.37650807 260.41449315 147.50280971 261.30859375 145.62890625 C263.12737143 141.82094408 264.95333839 138.0165498 266.78515625 134.21484375 C271.09793443 125.26058296 275.39984883 116.30228034 279.61328125 107.30078125 C279.92656372 106.63163696 280.23984619 105.96249268 280.56262207 105.27307129 C281.040401 104.25255676 281.040401 104.25255676 281.52783203 103.21142578 C289.57057672 86.03404558 297.83092608 68.97028086 306.16763306 51.93380737 C306.57766571 51.09584625 306.98769836 50.25788513 307.41015625 49.39453125 C308.01372452 48.16115524 308.01372452 48.16115524 308.62948608 46.90286255 C311.86675569 40.28301346 315.07415804 33.64958243 318.25 27 C318.63067627 26.20311768 319.01135254 25.40623535 319.40356445 24.58520508 C323.29936824 16.40444477 327.14183783 8.19859462 331 0 C378.19 0 425.38 0 474 0 C472.66052495 4.01842516 471.51754608 7.19439886 469.6015625 10.84375 C468.89265869 12.19980347 468.89265869 12.19980347 468.16943359 13.58325195 C467.65977051 14.54577881 467.15010742 15.50830566 466.625 16.5 C466.0882666 17.5211792 465.5515332 18.5423584 464.99853516 19.59448242 C461.04507948 27.09056258 456.99943881 34.53390772 452.91992188 41.96191406 C448.23609967 50.51303009 443.67714315 59.12835658 439.125 67.75 C433.21738626 78.93765965 427.27159461 90.1020729 421.25830078 101.23339844 C416.63386202 109.80209422 412.06164926 118.39778565 407.5 127 C401.81010584 137.72938767 396.08368455 148.43779631 390.31298828 159.12402344 C385.25586211 168.49954579 380.26487411 177.90952354 375.27700806 187.32199097 C370.33318675 196.64820369 365.32613157 205.93582862 360.24560547 215.18847656 C356.21889785 222.54472223 352.34550767 229.97611579 348.4855957 237.42089844 C345.1903697 243.76078319 341.81614331 250.05074743 338.375 256.3125 C332.40666407 267.17422963 326.61576584 278.12729142 320.84521484 289.0949707 C320.51031477 289.72796742 320.1754147 290.36096415 319.83036613 291.01314259 C319.10164906 292.39956163 318.38054873 293.79002972 317.66957664 295.18563175 C315.64114154 299.11569298 313.49171003 302.81131829 310.96612549 306.44400024 C300.2452238 322.57039934 300.30917061 337.90305984 300.58134365 356.5200305 C300.62894794 360.66530526 300.60722471 364.8102751 300.59356689 368.95571899 C300.57799736 376.76839615 300.62273162 384.57945639 300.69038892 392.39180815 C300.77844053 402.97466918 300.77079544 413.55746343 300.76916313 424.14061928 C300.76906762 440.76140493 300.8946228 457.37877257 301 474 C258.76 474 216.52 474 173 474 C173.10183594 463.42453125 173.20367188 452.8490625 173.30859375 441.953125 C173.33968199 435.19910883 173.3668972 428.44543257 173.37695312 421.69140625 C173.39357214 411.00229455 173.42469059 400.31483473 173.55883789 389.62646484 C173.65653177 381.83673374 173.69928372 374.04880396 173.68036038 366.25845408 C173.67217588 362.14575089 173.68856101 358.03699086 173.77114677 353.92502594 C174.19498325 331.66956993 170.98569266 316.64616134 158.76428318 297.77347374 C156.35034478 293.97873441 154.27936158 290.04256182 152.23828125 286.0390625 C151.57690779 284.78558677 150.91387112 283.53298542 150.24829102 282.28173828 C149.93240021 281.68492249 149.6165094 281.08810669 149.29104614 280.47320557 C144.27134716 270.99236945 139.22597651 261.52855101 134.0625 252.125 C128.61007256 242.19250418 123.31116041 232.18122312 118.0189209 222.1628418 C111.00376922 208.88308857 103.93126719 195.63548394 96.82666016 182.40332031 C93.71409631 176.60418372 90.60734427 170.80193455 87.5 165 C83.77530091 158.0458741 80.04986642 151.09214868 76.3203125 144.140625 C71.09693229 134.40183828 65.87641129 124.66186069 60.69921875 114.8984375 C60.33788345 114.21701691 59.97654816 113.53559631 59.60426331 112.83352661 C58.87278714 111.45394707 58.14132658 110.07435925 57.40988159 108.69476318 C57.04774567 108.01174133 56.68560974 107.32871948 56.3125 106.625 C55.95012238 105.94149475 55.58774475 105.2579895 55.21438599 104.55377197 C50.88062981 96.38275126 46.51438334 88.23248222 42.0625 80.125 C36.98835562 70.88302972 32.04857855 61.57270597 27.125 52.25 C21.49240642 41.58564845 15.84187206 30.93195337 10.125 20.3125 C9.56055176 19.26288086 8.99610352 18.21326172 8.41455078 17.13183594 C6.20084383 13.02715542 3.97965403 8.93912241 1.6171875 4.91796875 C0 2 0 2 0 0 Z " fill="#FDFDFD" transform="translate(2415,1467)"/>
<path d="M0 0 C227.46929352 0 227.46929352 0 266.75 38.3125 C291.45910238 63.27803488 299.36639129 95.44824141 299.38720703 129.50732422 C299.19190428 162.48334251 288.60131999 190.86096203 265.60546875 214.45703125 C257.27748591 222.34306475 247.35987785 229.07429121 237 234 C241.05885439 242.51621449 245.50576714 250.7487839 250.1875 258.9375 C254.62901636 266.70999417 258.9034384 274.54032432 263 282.5 C267.00000956 290.26829716 271.16159124 297.91551343 275.5 305.5 C280.36858239 314.01134594 284.97565443 322.62443145 289.46289062 331.34204102 C293.65400838 339.44047401 298.09772604 347.38103224 302.63671875 355.2890625 C311 369.88793884 311 369.88793884 311 373 C296.87478226 373.18695973 282.74975659 373.3274599 268.62355518 373.41449738 C262.06427447 373.45626911 255.50582419 373.51293683 248.94702148 373.60351562 C242.61867286 373.690366 236.29112349 373.73825916 229.96222496 373.75901794 C227.54635722 373.77381322 225.13053381 373.80270555 222.71500587 373.84584045 C219.33353408 373.90382927 215.95537441 373.91191671 212.57348633 373.90820312 C211.57223221 373.93696533 210.57097809 373.96572754 209.53938293 373.99536133 C202.89776888 373.91631518 202.89776888 373.91631518 200.29353237 371.2582798 C198.99808801 369.21735519 197.96951098 367.21144753 197 365 C196.48171631 364.05817871 195.96343262 363.11635742 195.42944336 362.14599609 C194.98737549 361.28055176 194.54530762 360.41510742 194.08984375 359.5234375 C193.58138916 358.5348877 193.07293457 357.54633789 192.54907227 356.52783203 C192.01725342 355.48739746 191.48543457 354.44696289 190.9375 353.375 C186.74370033 345.2351809 182.48205225 337.14448655 178.0625 329.125 C173.57977057 320.98094085 169.25766382 312.76384955 165 304.5 C160.65682216 296.07130056 156.24792794 287.68831068 151.6875 279.375 C151.20120117 278.48844727 150.71490234 277.60189453 150.21386719 276.68847656 C149.73981445 275.82448242 149.26576172 274.96048828 148.77734375 274.0703125 C146.07478901 269.14439947 143.39764505 264.20564432 140.75 259.25 C140.36674561 258.54020996 139.98349121 257.83041992 139.58862305 257.09912109 C137 252.2324855 137 252.2324855 137 250 C125.12 250 113.24 250 101 250 C101 290.59 101 331.18 101 373 C67.67 373 34.34 373 0 373 C0 249.91 0 126.82 0 0 Z " fill="#FDFDFD" transform="translate(1610,2028)"/>
<path d="M0 0 C45.87 0 91.74 0 139 0 C140.89491155 4.42146029 142.48950817 8.29776124 143.81860352 12.8269043 C146.09261031 20.37964166 148.57937706 27.85258145 151.08518791 35.33072853 C151.92429232 37.8350368 152.7613941 40.34000718 153.59803772 42.84513855 C155.67559303 49.06457978 157.75643338 55.28292075 159.83721924 61.50128174 C161.60111271 66.77303657 163.36369521 72.04522639 165.1246357 77.31796837 C165.93916445 79.75519388 166.75553354 82.19179736 167.57200623 84.62837219 C170.18390644 92.43871291 172.72716032 100.26391956 175.16337585 108.13084412 C177.2004992 114.69017383 179.36329686 121.20528513 181.54722404 127.71697426 C182.274279 129.88482068 182.99935491 132.05332129 183.72401428 134.2219696 C184.75979855 137.32115058 185.79632671 140.42008112 186.83349609 143.51879883 C189.54873572 151.63202659 192.25780177 159.74731502 194.96484375 167.86328125 C195.36467279 169.0619451 195.36467279 169.0619451 195.77257919 170.28482437 C200.34404282 183.99407174 204.85160459 197.72301492 209.29998779 211.47271729 C214.62355681 227.92393067 220.08692735 244.32735137 225.5859375 260.72070312 C225.90944687 261.6870015 226.23295624 262.65329987 226.56626892 263.64888 C227.15989519 265.42179857 227.75476099 267.19430299 228.35133362 268.9662323 C230.08806547 274.15584889 231.74232403 279.36780069 233.36206055 284.5949707 C235.77380484 292.3634813 238.33679325 300.07605455 240.94278717 307.78126526 C241.99946396 310.90817354 243.04998863 314.03713908 244.10102463 317.16594696 C246.04419544 322.95018998 247.98998197 328.73352683 249.9453125 334.51367188 C251.31923715 338.57589843 252.68573786 342.6405572 254.0474472 346.70689392 C254.56300424 348.241891 255.08126872 349.7759817 255.6023941 351.30909729 C256.32952029 353.44921802 257.04710449 355.59232741 257.76269531 357.73632812 C258.1717511 358.94937622 258.58080688 360.16242432 259.0022583 361.41223145 C260 365 260 365 261 373 C225.36 373 189.72 373 153 373 C151.02161396 367.7243039 149.16826583 362.53121922 147.546875 357.15234375 C147.3256044 356.42604263 147.1043338 355.69974152 146.87635803 354.95143127 C146.16497737 352.61423335 145.45728698 350.27593971 144.75 347.9375 C144.26018377 346.32286387 143.7701924 344.70828086 143.2800293 343.09375 C142.54582346 340.67527006 141.81181709 338.25673191 141.0789032 335.83786011 C139.64428357 331.10637569 138.19236548 326.38085966 136.72265625 321.66015625 C136.23104004 320.07376343 136.23104004 320.07376343 135.72949219 318.45532227 C135.13411746 316.53652272 134.53473808 314.61895949 133.93066406 312.70288086 C133.54152832 311.44229858 133.54152832 311.44229858 133.14453125 310.15625 C132.92128174 309.44275391 132.69803223 308.72925781 132.46801758 307.99414062 C132 306 132 306 132 302 C91.08 302 50.16 302 8 302 C7.34 304.97 6.68 307.94 6 311 C5.44099355 313.02980075 4.85780674 315.05318902 4.24414062 317.06713867 C3.91039429 318.16825485 3.57664795 319.26937103 3.23278809 320.40385437 C2.87753052 321.56351212 2.52227295 322.72316986 2.15625 323.91796875 C1.78649048 325.1339827 1.41673096 326.34999664 1.0357666 327.6028595 C0.2573358 330.16077924 -0.52229467 332.71829075 -1.30419922 335.27514648 C-2.30227245 338.53890614 -3.29671933 341.80375555 -4.28978729 345.06904125 C-5.24411464 348.20653746 -6.20012531 351.34351988 -7.15625 354.48046875 C-7.51150757 355.64619919 -7.86676514 356.81192963 -8.23278809 358.01298523 C-8.56653442 359.10464493 -8.90028076 360.19630463 -9.24414062 361.32104492 C-9.53567017 362.27540939 -9.82719971 363.22977386 -10.12756348 364.21305847 C-11.0481588 367.15384014 -12.02554156 370.07662467 -13 373 C-48.97 373 -84.94 373 -122 373 C-119.75027098 362.8762194 -119.75027098 362.8762194 -118.25097656 358.42822266 C-117.9153772 357.42483856 -117.57977783 356.42145447 -117.23400879 355.38766479 C-116.87319214 354.32387604 -116.51237549 353.26008728 -116.140625 352.1640625 C-115.75982788 351.02865021 -115.37903076 349.89323792 -114.98669434 348.72341919 C-113.95839145 345.65877381 -112.92632575 342.59542629 -111.89286804 339.53251648 C-110.14990953 334.36081426 -108.41885718 329.18510237 -106.68604279 324.00999451 C-106.24876032 322.70420511 -105.8113157 321.39847001 -105.37371063 320.0927887 C-101.43262251 308.33319319 -97.56900503 296.54974632 -93.75 284.75 C-88.76475388 269.35920274 -83.68269812 254.00294137 -78.55014038 238.66067505 C-73.98955372 225.02355328 -69.49691155 211.36614791 -65.0625 197.6875 C-59.78671335 181.41375038 -54.40702348 165.17673366 -48.98077393 148.95257568 C-43.9411418 133.87963432 -38.98017246 118.78316788 -34.07913208 103.66464233 C-29.06070475 88.18962628 -23.94330173 72.74911181 -18.76342773 57.32739258 C-12.37573799 38.25945722 -6.21668504 19.12826166 0 0 Z " fill="#FDFDFD" transform="translate(1313,2028)"/>
<path d="M0 0 C2.36004838 0.45317268 4.7252729 0.85658636 7.09472656 1.25732422 C31.95555885 5.70497466 58.11850713 16.92392703 77.33691406 33.44873047 C78.16578125 34.15255859 78.99464844 34.85638672 79.84863281 35.58154297 C82.40048136 37.81691423 84.87321643 40.1166808 87.33691406 42.44873047 C88.2946875 43.33044922 89.25246094 44.21216797 90.23925781 45.12060547 C112.44612496 66.01568972 125.82393114 95.29293541 128.33691406 125.44873047 C94.67691406 125.44873047 61.01691406 125.44873047 26.33691406 125.44873047 C24.68691406 121.48873047 23.03691406 117.52873047 21.33691406 113.44873047 C15.38852474 103.13577094 7.2116612 96.12181458 -3.66308594 91.44873047 C-4.26378906 91.17287109 -4.86449219 90.89701172 -5.48339844 90.61279297 C-21.29155109 83.93236026 -44.7985902 83.88133027 -60.73144531 90.27929688 C-68.64382341 93.75951258 -76.05299096 97.84016503 -82.66308594 103.44873047 C-83.45585937 104.03525391 -84.24863281 104.62177734 -85.06542969 105.22607422 C-96.69847904 115.17976607 -103.3252186 131.01155993 -107.47558594 145.38623047 C-107.67063721 146.05235352 -107.86568848 146.71847656 -108.06665039 147.40478516 C-111.48203608 160.18649322 -111.97552407 173.28671505 -111.86889648 186.43237305 C-111.85046094 188.77712798 -111.84838914 191.12148806 -111.84863281 193.46630859 C-111.78495605 221.90922205 -106.01013269 250.81115282 -85.97167969 272.16748047 C-71.70384268 286.26632449 -54.04138536 291.76168346 -34.35058594 291.94873047 C-13.61121345 291.78682523 6.37315225 287.3898321 22.08691406 273.26123047 C30.87641312 264.07693122 33.32972384 251.49187181 35.33691406 239.44873047 C12.89691406 239.44873047 -9.54308594 239.44873047 -32.66308594 239.44873047 C-32.66308594 215.68873047 -32.66308594 191.92873047 -32.66308594 167.44873047 C21.78691406 167.44873047 76.23691406 167.44873047 132.33691406 167.44873047 C132.33691406 289.81499187 132.33691406 289.81499187 89.33691406 334.44873047 C88.69496094 335.15384766 88.05300781 335.85896484 87.39160156 336.58544922 C61.67441137 364.02825174 19.0241386 378.63247521 -17.66308594 380.44873047 C-66.08990011 381.87268904 -115.89972302 374.6911274 -153.66308594 341.44873047 C-154.88511719 340.38912109 -154.88511719 340.38912109 -156.13183594 339.30810547 C-182.9070579 315.67318731 -200.07546628 286.72281516 -209.66308594 252.44873047 C-209.8588623 251.75489258 -210.05463867 251.06105469 -210.25634766 250.34619141 C-211.61299387 245.41961065 -212.70430032 240.46712343 -213.66308594 235.44873047 C-213.81406738 234.68318848 -213.96504883 233.91764648 -214.12060547 233.12890625 C-216.91935472 218.12676492 -216.97890366 203.03208166 -217.03808594 187.82373047 C-217.04594116 186.83451599 -217.05379639 185.84530151 -217.06188965 184.82611084 C-217.38637032 132.23084287 -199.57388818 83.3224232 -162.66308594 45.44873047 C-140.17541967 22.88534815 -110.28217966 8.90430905 -79.66308594 1.44873047 C-78.76847656 1.22572266 -77.87386719 1.00271484 -76.95214844 0.77294922 C-74.52882747 0.23121706 -72.11846014 -0.17989869 -69.66308594 -0.55126953 C-68.52742188 -0.73560547 -67.39175781 -0.91994141 -66.22167969 -1.10986328 C-44.73839835 -4.22460856 -21.3064019 -4.09806364 0 0 Z " fill="#FDFDFD" transform="translate(2167.6630859375,2025.55126953125)"/>
<path d="M0 0 C0.96357422 0.20898926 1.92714844 0.41797852 2.91992188 0.63330078 C42.86274948 9.49105408 78.36087462 30.34704542 101 65 C115.19415094 87.39061572 125 114.28388694 125 141 C91.01 141 57.02 141 22 141 C21.34 136.71 20.68 132.42 20 128 C16.31179434 114.1359016 8.17537834 101.73624645 -4 94 C-7.56603467 91.96850705 -11.14630829 90.40634723 -15 89 C-16.07507812 88.60683594 -17.15015625 88.21367187 -18.2578125 87.80859375 C-36.61982495 82.01749751 -57.47266918 83.6082089 -74.9921875 91.43359375 C-94.23046264 101.45248769 -106.21602151 117.76691476 -112.94140625 138.17578125 C-116.46877771 150.91857336 -118.74617142 163.76389709 -119 177 C-119.02578125 178.04897461 -119.0515625 179.09794922 -119.078125 180.17871094 C-119.4053053 195.10222232 -119.32616402 209.41577433 -116 224 C-115.71829759 225.36058349 -115.43704901 226.72126103 -115.15625 228.08203125 C-112.14126053 241.95031613 -106.86138677 254.8242275 -98 266 C-97.56558594 266.6084375 -97.13117188 267.216875 -96.68359375 267.84375 C-89.56380084 277.19511979 -77.92859378 283.3618911 -67 287 C-66.05382812 287.31839844 -65.10765625 287.63679688 -64.1328125 287.96484375 C-44.65332655 293.45451706 -22.28992246 290.94423834 -4.671875 281.23046875 C9.41546146 272.9597689 16.54346455 260.37688886 21 245 C21.34855253 243.00259612 21.68417634 241.00283962 22 239 C31.47915234 238.96930196 40.95830677 238.94898874 50.4375 238.9375 C51.1387928 238.93664398 51.8400856 238.93578796 52.5626297 238.93490601 C76.72078156 238.9088607 100.85355406 239.20261166 125 240 C122.75003493 273.20162844 107.25979023 303.65192017 85 328 C84.30052246 328.76739502 84.30052246 328.76739502 83.58691406 329.55029297 C57.74038878 357.51669455 20.74410923 373.49051746 -16.67163086 377.73388672 C-18.13794517 377.90147428 -19.60276142 378.08339019 -21.06469727 378.28564453 C-67.46433358 384.38640819 -118.3464082 373.54953293 -155.8125 345.0625 C-175.88088494 329.2772287 -191.23335061 310.57848713 -203 288 C-203.31565918 287.39607422 -203.63131836 286.79214844 -203.95654297 286.16992188 C-212.73491595 269.09122932 -217.80857517 250.86224699 -221 232 C-221.21398437 230.7728125 -221.42796875 229.545625 -221.6484375 228.28125 C-223.63116968 216.21244545 -224.16458978 204.2308254 -224.13037109 192.02001953 C-224.12504066 189.76718312 -224.13033401 187.51454892 -224.13671875 185.26171875 C-224.15629192 151.91449514 -219.18639731 119.01830355 -204 89 C-203.65743164 88.3203418 -203.31486328 87.64068359 -202.96191406 86.94042969 C-195.38757322 72.17999473 -185.46950379 58.96644936 -174 47 C-173.18402344 46.12085937 -172.36804688 45.24171875 -171.52734375 44.3359375 C-128.83324605 -0.30737526 -58.62898591 -13.1824305 0 0 Z " fill="#FDFDFD" transform="translate(1044,2027)"/>
<path d="M0 0 C17.58621211 -0.09379749 35.1723452 -0.16415154 52.75875092 -0.20724869 C60.92600408 -0.22779896 69.09310105 -0.25577373 77.26025391 -0.30175781 C84.38586018 -0.34185818 91.51135323 -0.36748744 98.63706923 -0.37635398 C102.40368147 -0.38152987 106.16997005 -0.39353375 109.93647766 -0.42292023 C134.67992232 -0.60848964 156.6299484 0.62044868 175.55859375 18.43359375 C181.8936805 25.09303695 187.56992847 31.90462032 192.75 39.5 C193.97101001 41.26716493 195.19237003 43.03408806 196.4140625 44.80078125 C197.01637695 45.67557129 197.61869141 46.55036133 198.23925781 47.45166016 C200.84044901 51.21639029 203.48072487 54.9529645 206.125 58.6875 C207.10684597 60.07676982 208.0886171 61.46609253 209.0703125 62.85546875 C209.55274414 63.53786621 210.03517578 64.22026367 210.53222656 64.92333984 C213.02320986 68.44767516 215.51144903 71.97394701 218 75.5 C218.99998722 76.91667568 219.99998722 78.33334236 221 79.75 C335 241.25 335 241.25 336.50170898 243.37744141 C337.49598678 244.78598812 338.49028993 246.19451693 339.48461914 247.60302734 C342.07238316 251.2687787 344.6596305 254.93489322 347.24609375 258.6015625 C347.78041016 259.35888672 348.31472656 260.11621094 348.86523438 260.89648438 C349.87842055 262.33256565 350.89145323 263.76875525 351.90429688 265.20507812 C354.92125376 269.48084873 357.95472262 273.74434921 361 278 C359.18997431 282.03696741 356.63996245 285.56979961 354.125 289.1875 C353.6395874 289.8894751 353.1541748 290.5914502 352.65405273 291.31469727 C347.6548425 298.52902099 342.59018851 305.69711741 337.51611328 312.85888672 C335.50674132 315.69659882 333.50168784 318.53734602 331.49707031 321.37841797 C330.50068299 322.79045414 329.50393933 324.20223893 328.50683594 325.61376953 C325.96388463 329.21393084 323.42542653 332.81713251 320.89453125 336.42578125 C305.3188111 358.61645398 291.18358374 377.28369647 263 383 C258.2946124 383.39550718 253.6193271 383.38067331 248.8996582 383.34057617 C247.51874307 383.33972792 246.13782659 383.34020889 244.75691223 383.34190369 C241.04268458 383.34275736 237.32875312 383.32523464 233.61459374 383.30418181 C229.72022557 383.28530915 225.82584911 383.28365629 221.93144226 383.28010559 C214.57230577 383.27081601 207.21330446 383.24624448 199.85422724 383.21605712 C191.46962845 383.18241646 183.08502288 383.16600291 174.70037329 383.15097082 C157.4668376 383.11969181 140.23343314 383.06699202 123 383 C127.36243887 375.31370695 127.36243887 375.31370695 129.7421875 372.08203125 C130.24371338 371.3955249 130.74523926 370.70901855 131.26196289 370.00170898 C131.79426514 369.27927002 132.32656738 368.55683105 132.875 367.8125 C137.67397814 361.23485569 142.40434689 354.61565176 147.0625 347.9375 C147.64676758 347.10025391 148.23103516 346.26300781 148.83300781 345.40039062 C149.99534228 343.73474401 151.15761538 342.06905458 152.31982422 340.40332031 C154.91005766 336.69825521 157.51615377 333.00447372 160.125 329.3125 C160.61234619 328.622771 161.09969238 327.93304199 161.60180664 327.22241211 C162.57850604 325.84041899 163.55531218 324.45850131 164.53222656 323.07666016 C167.02320987 319.55232483 169.51143347 316.02604203 172 312.5 C172.99087906 311.09634968 173.98176449 309.69270386 174.97265625 308.2890625 C177.06434032 305.32590027 179.15539361 302.36229403 181.24609375 299.3984375 C181.78041016 298.64111328 182.31472656 297.88378906 182.86523438 297.10351562 C183.87842055 295.66743435 184.89145323 294.23124475 185.90429688 292.79492188 C186.36771484 292.13814453 186.83113281 291.48136719 187.30859375 290.8046875 C187.75058105 290.16885742 188.19256836 289.53302734 188.64794922 288.87792969 C189.56853168 287.59928753 190.53101121 286.35002463 191.52783203 285.12988281 C193.17609596 283.14300915 193.17609596 283.14300915 195 280 C194.32478377 275.28849119 190.38777723 271.06543032 187.625 267.25 C186.53371841 265.72405541 185.44257644 264.19801097 184.3515625 262.671875 C183.7937207 261.89521484 183.23587891 261.11855469 182.66113281 260.31835938 C180.08740248 256.72633362 177.54443148 253.11280691 175 249.5 C174.00016639 248.08321589 173.00016589 246.66654955 172 245.25 C97.75 140.0625 97.75 140.0625 22 32.75 C21.50411377 32.04762207 21.00822754 31.34524414 20.49731445 30.62158203 C19.50577973 29.21665185 18.51472483 27.8113829 17.52416992 26.40576172 C14.89865605 22.68148738 12.26303218 18.9648905 9.61328125 15.2578125 C9.06091797 14.48244141 8.50855469 13.70707031 7.93945312 12.90820312 C6.87739256 11.41774839 5.81241584 9.92936612 4.74414062 8.44335938 C4.26783203 7.77369141 3.79152344 7.10402344 3.30078125 6.4140625 C2.87966064 5.8257666 2.45854004 5.2374707 2.0246582 4.63134766 C1 3 1 3 0 0 Z " fill="#FE7C00" transform="translate(2686,2023)"/>
<path d="M0 0 C1.17175781 0.36351562 2.34351563 0.72703125 3.55078125 1.1015625 C26.4131293 8.7141596 43.13635642 23.64072534 54.06005859 45.08056641 C59.15745841 55.44412349 62.764056 65.6475357 65 77 C65.17515137 77.88333008 65.35030273 78.76666016 65.53076172 79.67675781 C68.65098185 95.65119483 70.23652303 110.90949485 70.25 127.1875 C70.25100708 128.03148346 70.25201416 128.87546692 70.25305176 129.74502563 C70.24207025 143.37937842 69.45368539 156.56480426 67 170 C66.86609863 170.81339844 66.73219727 171.62679688 66.59423828 172.46484375 C63.05194306 193.93329961 54.58959868 215.62783758 40 232 C39.33484375 232.75925781 38.6696875 233.51851562 37.984375 234.30078125 C28.89671544 244.04477177 17.47304041 250.53766227 5 255 C3.68515625 255.49693359 3.68515625 255.49693359 2.34375 256.00390625 C-7.01948597 258.79318799 -16.17219803 259.31973818 -25.89746094 259.26074219 C-27.99703843 259.25001513 -30.09576069 259.26070107 -32.1953125 259.2734375 C-56.24259682 259.30106666 -76.46015694 250.94285858 -93.9375 234.5 C-110.9468732 216.96320437 -118.151298 194.4452241 -123 171 C-123.17934082 170.15791992 -123.35868164 169.31583984 -123.54345703 168.44824219 C-132.15038798 126.00333741 -127.86016351 73.38637739 -105 36 C-92.08039082 17.02217266 -74.38836449 3.63988734 -51.78125 -1.4921875 C-50.8634375 -1.65976563 -49.945625 -1.82734375 -49 -2 C-47.51693359 -2.27457031 -47.51693359 -2.27457031 -46.00390625 -2.5546875 C-31.28230105 -4.56163286 -14.21234585 -4.5964896 0 0 Z " fill="#027DDA" transform="translate(1078,1576)"/>
<path d="M0 0 C1.43085938 0.433125 1.43085938 0.433125 2.890625 0.875 C20.12703927 6.94568679 31.79587073 21.59174147 39.69140625 37.3828125 C43.59405901 45.97060478 46.25468053 54.73978954 48 64 C48.26925293 65.4228833 48.26925293 65.4228833 48.54394531 66.87451172 C50.17929348 76.7054813 50.30636861 86.39650436 50.26074219 96.34130859 C50.24999036 99.12749857 50.26071302 101.91304783 50.2734375 104.69921875 C50.2795797 113.12176366 50.18481241 121.27602409 48.49584961 129.56567383 C47.95465933 132.22259568 47.62802005 134.87029353 47.3125 137.5625 C44.29207077 155.51989564 35.81402683 172.16364908 23 185 C22.36320312 185.64839844 21.72640625 186.29679687 21.0703125 186.96484375 C6.86755454 200.43094414 -13.27775883 203.49056969 -32.08203125 203.203125 C-50.75055304 202.61127548 -67.31909976 194.96811772 -80.32421875 181.61328125 C-103.86020814 154.88055306 -105.21797226 115.69723246 -104 82 C-102.26390552 56.52562928 -94.14046582 30.48992794 -75.4375 12.3125 C-54.3747728 -5.736637 -25.73877276 -7.819374 0 0 Z " fill="#027DDA" transform="translate(2554,2115)"/>
<path d="M0 0 C2.475 0.495 2.475 0.495 5 1 C5.29712891 2.01835938 5.59425781 3.03671875 5.90039062 4.0859375 C9.01959922 14.74923406 12.23638615 25.38012287 15.5 36 C18.17875331 44.71672699 20.84828149 53.43444337 23.40625 62.1875 C26.51429568 72.81887568 29.76349635 83.4071789 33 94 C36.69557373 106.09532128 40.37331298 118.19360104 43.92333984 130.33251953 C44.86735263 133.54815674 45.82700325 136.7581209 46.80078125 139.96484375 C47.18266602 141.22264648 47.18266602 141.22264648 47.57226562 142.50585938 C48.08373609 144.18601962 48.59686262 145.86567629 49.11132812 147.54492188 C49.35947266 148.36412109 49.60761719 149.18332031 49.86328125 150.02734375 C50.08282471 150.74656006 50.30236816 151.46577637 50.52856445 152.20678711 C51 154 51 154 51 156 C18.66 156 -13.68 156 -47 156 C-43.46046894 143.6116413 -39.89546403 131.2619685 -36.1171875 118.94921875 C-33.12249159 109.15068016 -30.19398031 99.33209589 -27.2567749 89.51620483 C-24.39036148 79.93700543 -21.50493215 70.36410075 -18.5859375 60.80078125 C-16.12197239 52.72412936 -13.69152701 44.63812668 -11.2890625 36.54296875 C-10.98619324 35.52260529 -10.68332397 34.50224182 -10.37127686 33.45095825 C-9.1370033 29.29036293 -7.90372796 25.12947479 -6.67236328 20.96801758 C-5.75455291 17.86751731 -4.83447661 14.76769689 -3.9140625 11.66796875 C-3.63495026 10.72237595 -3.35583801 9.77678314 -3.06826782 8.80253601 C-2.68183609 7.50265495 -2.68183609 7.50265495 -2.28759766 6.17651367 C-2.06222321 5.41537766 -1.83684875 4.65424164 -1.60464478 3.87004089 C-1 2 -1 2 0 0 Z " fill="#037EDA" transform="translate(2191,1598)"/>
<path d="M0 0 C7.321875 -0.04125 14.64375 -0.0825 22.1875 -0.125 C24.47067139 -0.14320801 26.75384277 -0.16141602 29.10620117 -0.18017578 C55.5427252 -0.30774503 55.5427252 -0.30774503 67.375 5.25 C68.0548999 5.56227539 68.7347998 5.87455078 69.43530273 6.19628906 C79.72220178 11.08073382 85.56908021 18.05917857 90.10546875 28.55859375 C94.07034514 40.7882829 93.36907071 55.36953415 88 67 C81.36724008 78.6335315 72.66298974 84.33169519 60 88 C52.08494409 89.71878007 44.40847754 90.2801088 36.328125 90.1953125 C35.39661621 90.19329834 34.46510742 90.19128418 33.50537109 90.18920898 C30.08686263 90.17889043 26.66842538 90.15097029 23.25 90.125 C15.5775 90.08375 7.905 90.0425 0 90 C0 60.3 0 30.6 0 0 Z " fill="#027DDA" transform="translate(1712,2109)"/>
<path d="M0 0 C1.32 0 2.64 0 4 0 C4.26232422 0.90234375 4.52464844 1.8046875 4.79492188 2.734375 C8.91714637 16.85699717 13.21510757 30.92607437 17.5 45 C26.06679395 73.13802748 26.06679395 73.13802748 29.31498718 84.25906372 C30.66766503 88.88722217 32.05378373 93.50419687 33.45703125 98.1171875 C33.85093051 99.4153588 34.24481096 100.71353581 34.63867188 102.01171875 C35.23356985 103.97182175 35.82979225 105.93148207 36.42944336 107.89013672 C37.02575859 109.8396925 37.61685982 111.7907645 38.20703125 113.7421875 C38.5522583 114.8751123 38.89748535 116.00803711 39.25317383 117.17529297 C40 120 40 120 40 123 C14.59 123 -10.82 123 -37 123 C-35.16989263 116.28960632 -33.32797209 109.60707307 -31.328125 102.94921875 C-31.08493027 102.13641449 -30.84173553 101.32361023 -30.59117126 100.48617554 C-29.81241501 97.88612374 -29.03135017 95.28677336 -28.25 92.6875 C-27.98232819 91.79505585 -27.71465637 90.90261169 -27.43887329 89.98312378 C-24.18430657 79.1354195 -20.86578652 68.3156851 -17.36987305 57.54296875 C-14.92937978 49.94800466 -12.82004065 42.27064902 -10.70947266 34.57861328 C-7.48647217 22.94272713 -3.76616572 11.46961945 0 0 Z " fill="#057EDA" transform="translate(1381,2131)"/>
</svg>
