<?xml version="1.0" standalone="no"?>
<!DOCTYPE svg PUBLIC "-//W3C//DTD SVG 20010904//EN"
 "http://www.w3.org/TR/2001/REC-SVG-20010904/DTD/svg10.dtd">
<svg version="1.0" xmlns="http://www.w3.org/2000/svg"
 width="3867.000000pt" height="3867.000000pt" viewBox="0 0 3867.000000 3867.000000"
 preserveAspectRatio="xMidYMid meet">

<g transform="translate(0.000000,3867.000000) scale(0.100000,-0.100000)"
fill="#000000" stroke="none">
<path d="M0 19335 l0 -19335 19335 0 19335 0 0 19335 0 19335 -19335 0 -19335
0 0 -19335z m10900 4701 c936 -148 1602 -755 1820 -1661 61 -251 74 -378 74
-730 1 -347 -6 -434 -54 -677 -92 -459 -309 -863 -631 -1173 -164 -157 -312
-259 -532 -365 -216 -104 -422 -169 -647 -204 -535 -85 -1069 -11 -1518 209
-304 149 -543 346 -743 612 -241 320 -376 661 -446 1128 -26 174 -26 736 0
910 70 466 202 802 442 1124 195 263 439 464 740 611 224 110 458 182 698 214
62 9 126 18 142 20 78 11 555 -3 655 -18z m3744 -1429 c170 -765 316 -1420
324 -1455 11 -49 18 -62 30 -60 13 3 97 309 398 1453 l381 1450 568 0 567 0
382 -1455 c378 -1439 398 -1507 418 -1448 2 7 148 664 324 1461 l319 1447 718
0 719 0 -7 -27 c-5 -21 -1353 -4602 -1381 -4695 -5 -17 -43 -18 -623 -18
l-618 0 -400 1318 c-337 1108 -403 1317 -418 1317 -15 0 -75 -188 -376 -1180
-197 -649 -377 -1242 -400 -1317 l-42 -138 -618 0 -618 0 -20 68 c-194 655
-1361 4625 -1366 4645 l-7 27 718 0 719 0 309 -1393z m8947 -972 c428 -1298
779 -2363 779 -2367 0 -5 -312 -8 -694 -8 l-694 0 -31 98 c-16 53 -64 212
-106 352 -42 140 -90 299 -106 353 l-30 97 -777 0 -778 0 -135 -447 -135 -448
-698 -3 c-581 -2 -697 0 -693 11 7 19 1432 4339 1502 4555 l56 172 881 -2 881
-3 778 -2360z m2453 1402 c392 -816 463 -957 480 -955 15 2 122 218 477 958
l458 955 721 3 c397 1 719 -1 717 -5 -2 -5 -394 -738 -871 -1629 l-866 -1622
0 -741 0 -741 -640 0 -640 0 0 746 0 745 -859 1607 c-473 884 -863 1615 -867
1625 -6 16 31 17 712 15 l718 -3 460 -958z m-15789 -4607 c448 -52 837 -242
1079 -530 198 -234 324 -538 353 -847 l6 -63 -514 0 -515 0 -16 87 c-23 122
-75 221 -157 304 -117 117 -259 170 -461 171 -146 0 -241 -20 -350 -73 -68
-34 -102 -59 -170 -128 -73 -73 -94 -102 -138 -191 -89 -180 -125 -363 -125
-640 0 -276 36 -460 124 -639 43 -87 65 -118 133 -186 137 -139 286 -195 519
-195 257 0 431 84 549 264 34 53 88 194 88 232 0 12 67 14 478 14 262 0 494
-3 515 -6 33 -6 37 -10 37 -36 0 -48 -29 -177 -65 -284 -154 -463 -521 -823
-1004 -984 -181 -61 -312 -81 -552 -87 -298 -8 -482 17 -719 96 -251 84 -443
203 -631 390 -269 270 -417 570 -491 996 -20 114 -22 165 -23 425 0 316 9 404
60 610 104 418 329 757 660 995 150 107 417 224 620 271 180 41 507 57 710 34z
m11345 -4 c212 -29 374 -78 565 -171 165 -80 284 -164 411 -290 206 -205 354
-499 380 -753 l7 -62 -513 2 -513 3 -17 51 c-38 109 -100 188 -205 256 -150
98 -421 120 -633 52 -337 -108 -532 -467 -532 -982 0 -620 252 -994 694 -1030
115 -9 282 1 367 23 236 60 382 215 408 432 l7 63 -338 0 -338 0 0 365 0 365
830 0 830 0 0 -292 c0 -425 -21 -612 -91 -821 -108 -324 -326 -600 -614 -777
-163 -100 -381 -182 -590 -221 -139 -26 -484 -37 -631 -20 -391 46 -718 184
-986 416 -194 168 -370 429 -467 691 -41 112 -87 306 -107 449 -21 145 -24
504 -6 645 75 588 336 1037 772 1328 208 138 485 241 750 277 129 18 430 18
560 1z m3954 -1 c565 -74 1012 -368 1288 -846 206 -357 289 -883 222 -1408
-50 -394 -193 -722 -432 -996 -256 -293 -648 -494 -1078 -550 -150 -20 -422
-19 -566 1 -759 104 -1310 608 -1471 1345 -45 204 -52 280 -52 559 0 286 11
393 62 600 109 449 386 832 767 1060 201 121 455 206 712 239 116 14 422 12
548 -4z m2724 0 c45 -9 115 -34 169 -60 170 -84 141 -46 1124 -1440 485 -687
885 -1255 890 -1261 6 -7 -89 -151 -268 -405 -320 -454 -363 -504 -506 -574
-156 -76 -156 -76 -924 -73 l-672 3 364 515 c201 283 363 520 360 527 -2 6
-443 633 -979 1393 -537 760 -976 1384 -976 1386 0 2 302 4 670 4 562 0 683
-2 748 -15z m-13141 -1900 c337 -1023 613 -1861 613 -1862 0 -2 -247 -3 -548
-3 l-549 0 -88 293 c-49 160 -97 320 -107 355 l-19 62 -612 -2 -612 -3 -105
-350 -106 -350 -547 -3 c-301 -1 -547 1 -547 5 0 5 275 844 612 1866 l612
1857 695 -2 695 -3 613 -1860z m2913 1842 c575 -115 932 -459 1026 -987 22
-126 22 -382 1 -506 -64 -358 -245 -617 -559 -798 -27 -15 -48 -29 -48 -32 0
-4 626 -1158 717 -1321 l35 -63 -554 0 -554 0 -325 613 -325 612 -172 3 -172
2 0 -615 0 -615 -510 0 -510 0 0 1865 0 1866 933 -4 c828 -3 941 -5 1017 -20z"/>
<path d="M10390 22934 c-225 -28 -375 -93 -513 -223 -188 -177 -299 -437 -337
-791 -17 -152 -14 -481 5 -625 59 -447 230 -738 520 -881 149 -73 219 -87 435
-87 159 0 196 3 265 21 302 83 504 285 614 617 64 193 83 319 88 602 5 254 -3
374 -37 541 -93 451 -338 731 -704 807 -80 16 -271 27 -336 19z"/>
<path d="M21682 21914 c-128 -427 -231 -778 -229 -780 2 -2 220 -3 483 -2
l479 3 -234 778 c-182 603 -238 777 -250 777 -12 0 -69 -176 -249 -776z"/>
<path d="M25173 17549 c-101 -9 -230 -53 -306 -103 -94 -63 -182 -166 -237
-281 -86 -175 -120 -359 -120 -640 0 -283 34 -465 121 -644 43 -87 63 -116
132 -186 138 -140 282 -195 503 -196 144 0 239 19 341 67 216 103 349 311 410
644 25 136 24 496 -1 635 -47 258 -146 453 -288 566 -135 108 -338 158 -555
138z"/>
<path d="M13633 16753 c-100 -334 -181 -608 -179 -610 2 -2 171 -2 377 -1
l375 3 -168 555 c-92 305 -175 579 -183 608 -9 28 -21 52 -28 52 -7 0 -83
-237 -194 -607z"/>
<path d="M17120 17130 l0 -452 258 5 c219 4 268 8 335 26 146 39 233 106 285
219 47 104 42 313 -10 416 -32 62 -103 131 -171 164 -110 54 -167 63 -444 69
l-253 6 0 -453z"/>
</g>
</svg>
